<?xml version="1.0" encoding="utf-8"?>
<!-- Generator: Adobe Illustrator 18.0.0, SVG Export Plug-In . SVG Version: 6.00 Build 0)  -->
<!DOCTYPE svg PUBLIC "-//W3C//DTD SVG 1.0//EN" "http://www.w3.org/TR/2001/REC-SVG-20010904/DTD/svg10.dtd">
<svg version="1.0" id="Layer_1" xmlns="http://www.w3.org/2000/svg" xmlns:xlink="http://www.w3.org/1999/xlink" x="0px" y="0px"
	 viewBox="0 0 329.2 397" enable-background="new 0 0 329.2 397" xml:space="preserve">
<g>
	<rect x="0" y="228" fill="#5E2D17" width="329.1" height="169"/>
	<g>
		<polygon opacity="0.2" fill="#FFFFFF" points="311.4,283.1 329.2,283.1 329.2,397 0,397 18,378.1 104.8,378.1 112,397 
			119.1,378.1 210,378.1 217.1,397 224.3,378.1 311.4,378.1 		"/>
	</g>
	<polygon opacity="0.3" fill="#FFFFFF" points="210,378.1 210,289.3 217.1,289.3 217.1,397 	"/>
	<polygon opacity="0.3" fill="#FFFFFF" points="104.8,378.1 104.8,289.3 112,289.3 112,397 	"/>
	<g opacity="0.2">
		<polygon fill="#12100B" points="217.1,397 217.1,289.3 224.3,289.3 224.3,378.1 		"/>
		<polygon fill="#12100B" points="112,397 112,289.3 119.1,289.3 119.1,378.1 		"/>
		<polygon fill="#12100B" points="0,397 0,280.1 18,280.1 18,378.1 		"/>
	</g>
</g>
<g>
	<g>
		<g>
			<polygon fill="#40AAA2" points="17.8,306.9 0,292.7 0,0 329.2,0 329.2,294 311.4,306.9 281.3,301.1 251.2,320.8 239.4,306.9 
				193.4,314.9 169,299.3 151.8,311.2 111.1,296.4 87.4,303 49.6,314.2 			"/>
		</g>
	</g>
</g>
<path fill="#FDC300" d="M182.9,44.5c-0.1-0.1-0.2-0.2-0.3-0.3C182.6,44.3,182.7,44.4,182.9,44.5z"/>
<polygon opacity="0.2" fill="#FFFFFF" points="444.5,858.8 462.3,884.4 133.1,884.4 150.9,858.8 "/>
<polygon opacity="0.2" fill="#FFFFFF" points="329.2,0 311.4,0 311.4,306.9 329.2,294 "/>
<g>
	<g>
		<path fill="#FFFFFF" d="M44.4,81.8c1.2,0.4,2.4,0.7,3.7,0.9c1.1,0.3,2.3,0.5,3.6,0.6c1.4,0.2,2.7,0.2,4.1,0.2
			c2.5,0,3.7-0.9,3.7-2.7c0-0.7-0.4-1.4-1.1-2.1c-0.7-0.7-1.7-1.5-2.8-2.4c-1.1-0.9-2.4-1.9-3.7-2.9c-1.3-1.1-2.5-2.3-3.7-3.7
			c-1.1-1.4-2.1-2.9-2.8-4.7c-0.7-1.7-1.1-3.7-1.1-6c0-2.5,0.5-4.7,1.4-6.6c0.9-1.9,2.2-3.5,3.8-4.8c1.6-1.3,3.5-2.3,5.6-2.9
			c2.2-0.7,4.5-1,6.9-1c1.3,0,2.6,0.1,3.8,0.2c1.3,0.1,2.4,0.3,3.4,0.4c1.2,0.2,2.3,0.3,3.4,0.5v15c-0.4-0.1-0.9-0.1-1.4-0.2
			c-0.4-0.1-0.9-0.1-1.4-0.2c-0.5-0.1-1.1-0.1-1.7-0.1c-0.3,0-0.7,0-1.2,0c-0.5,0-0.9,0.1-1.4,0.2c-0.4,0.1-0.8,0.3-1.1,0.6
			c-0.3,0.3-0.5,0.6-0.5,1.1c0,0.4,0.4,1,1.1,1.6c0.7,0.6,1.6,1.4,2.6,2.2c1,0.9,2.2,1.8,3.4,3c1.3,1.1,2.4,2.4,3.4,3.8
			s1.9,3.1,2.6,4.9c0.7,1.8,1.1,3.8,1.1,6.1c0,2.3-0.4,4.5-1.1,6.6c-0.7,2.1-1.9,3.8-3.5,5.4c-1.6,1.5-3.6,2.7-6,3.6
			c-2.5,0.9-5.4,1.3-8.7,1.3c-2,0-3.9-0.1-5.6-0.3c-1.7-0.2-3.3-0.4-4.6-0.7c-1.5-0.3-3-0.6-4.2-1V81.8z M51.1,91.4
			c0.7,0.2,1.5,0.3,2.4,0.4c0.7,0.1,1.5,0.2,2.4,0.3c0.8,0.1,1.7,0.1,2.5,0.1c1.5,0,2.9-0.2,4.4-0.5c1.4-0.3,2.7-0.9,3.8-1.7
			c1.1-0.8,2-1.8,2.7-3.1c0.7-1.3,1-2.8,1-4.6c0-1.5-0.4-3-1.2-4.4c-0.8-1.4-1.8-2.7-3-4s-2.5-2.5-3.8-3.7c-1.4-1.2-2.6-2.4-3.8-3.6
			c-1.2-1.2-2.2-2.4-3-3.6c-0.8-1.2-1.2-2.4-1.2-3.7c0-1.9,0.6-3.4,1.8-4.4c1.2-1,3.2-1.6,5.9-1.6c0.4,0,0.9,0,1.3,0
			c0.5,0,0.9,0.1,1.3,0.1c0.4,0.1,0.9,0.1,1.3,0.1v-2.1c-0.4,0-0.8,0-1.2-0.1c-0.4-0.1-0.8-0.1-1.2-0.1c-0.5,0-0.9,0-1.4,0
			c-2.9,0-5.3,0.7-7.1,2c-1.9,1.3-2.8,3.3-2.8,6.1c0,1.5,0.4,2.9,1.2,4.2c0.8,1.3,1.8,2.6,3,3.8c1.2,1.3,2.5,2.5,3.8,3.6
			c1.4,1.2,2.6,2.4,3.8,3.6c1.2,1.2,2.2,2.4,3,3.7c0.8,1.3,1.2,2.6,1.2,4c0,2.6-0.9,4.5-2.6,5.8c-1.7,1.3-4.1,2-7.2,2
			c-1.8,0-3.5-0.1-5-0.4c-0.8-0.1-1.6-0.2-2.3-0.4V91.4z"/>
		<path fill="#FFFFFF" d="M80.7,71.7c0-3.8,0.7-7.5,2.2-10.9c1.5-3.4,3.5-6.4,6-8.9c2.5-2.5,5.5-4.5,8.9-6c3.4-1.5,7-2.2,10.9-2.2
			c3.8,0,7.5,0.7,10.9,2.2c3.4,1.5,6.4,3.5,8.9,6c2.5,2.5,4.5,5.5,6,8.9c1.5,3.4,2.2,7,2.2,10.9c0,3.8-0.7,7.5-2.2,10.9
			c-1.5,3.4-3.5,6.4-6,8.9c-2.5,2.5-5.5,4.5-8.9,6c-3.4,1.5-7,2.2-10.9,2.2c-3.8,0-7.5-0.7-10.9-2.2c-3.4-1.5-6.4-3.5-8.9-6
			c-2.5-2.5-4.5-5.5-6-8.9C81.4,79.2,80.7,75.6,80.7,71.7z M88.2,71.7c0,2.8,0.5,5.5,1.6,8c1.1,2.5,2.5,4.7,4.4,6.5
			c1.9,1.9,4,3.3,6.5,4.4c2.5,1.1,5.1,1.6,8,1.6c2.8,0,5.5-0.5,8-1.6c2.5-1.1,4.7-2.5,6.5-4.4c1.9-1.9,3.3-4,4.4-6.5
			c1.1-2.5,1.6-5.1,1.6-8c0-2.8-0.5-5.5-1.6-8c-1.1-2.5-2.5-4.7-4.4-6.5c-1.9-1.9-4-3.3-6.5-4.4c-2.5-1.1-5.1-1.6-8-1.6
			c-2.8,0-5.5,0.5-8,1.6c-2.5,1.1-4.7,2.5-6.5,4.4c-1.9,1.9-3.3,4-4.4,6.5C88.7,66.2,88.2,68.9,88.2,71.7z M108.7,90.1
			c-2.6,0-4.9-0.5-7.2-1.4c-2.2-1-4.2-2.3-5.8-4c-1.7-1.7-3-3.6-4-5.8c-1-2.2-1.4-4.6-1.4-7.2s0.5-4.9,1.4-7.2c1-2.2,2.3-4.2,4-5.8
			c1.7-1.7,3.6-3,5.8-4c2.2-1,4.6-1.4,7.2-1.4c2.6,0,4.9,0.5,7.2,1.4s4.2,2.3,5.8,4c1.7,1.7,3,3.6,4,5.8c1,2.2,1.4,4.6,1.4,7.2
			s-0.5,4.9-1.4,7.2c-1,2.2-2.3,4.2-4,5.8c-1.7,1.7-3.6,3-5.8,4S111.2,90.1,108.7,90.1z M97.5,71.7c0,1.5,0.3,3,0.9,4.4
			c0.6,1.4,1.4,2.5,2.4,3.6c1,1,2.2,1.8,3.6,2.4c1.4,0.6,2.8,0.9,4.4,0.9c1.5,0,3-0.3,4.4-0.9c1.4-0.6,2.5-1.4,3.6-2.4
			c1-1,1.8-2.2,2.4-3.6c0.6-1.4,0.9-2.8,0.9-4.4c0-1.5-0.3-3-0.9-4.4s-1.4-2.5-2.4-3.6c-1-1-2.2-1.8-3.6-2.4
			c-1.4-0.6-2.8-0.9-4.4-0.9c-1.5,0-3,0.3-4.4,0.9c-1.4,0.6-2.5,1.4-3.6,2.4c-1,1-1.8,2.2-2.4,3.6C97.8,68.7,97.5,70.2,97.5,71.7z"
			/>
		<path fill="#FFFFFF" d="M141.1,45h18.4c3.4,0,6.6,0.5,9.5,1.4c2.9,0.9,5.4,2.2,7.6,4c2.1,1.8,3.8,3.9,5,6.5
			c1.2,2.6,1.8,5.6,1.8,8.9c0,2.7-0.4,4.9-1.1,6.8c-0.7,1.9-1.6,3.4-2.5,4.6c-1.1,1.4-2.3,2.6-3.6,3.5l10,17.6h-20l-8-13.5v13.5h-17
			V45z M157.7,79.8c2.1,0,4.1-0.2,6.1-0.6l7.6,12.8h2.5l-8-13.4c2.9-1,5.2-2.6,6.9-4.7c1.7-2.1,2.6-4.8,2.6-8.2
			c0-2.3-0.5-4.4-1.4-6.2c-0.9-1.8-2.1-3.2-3.7-4.4c-1.6-1.2-3.4-2.1-5.6-2.7c-2.1-0.6-4.5-0.9-7-0.9h-8.6V92h2.1V79.8H157.7z
			 M151.1,77.9V53.3h6.6c4.9,0,8.7,1.1,11.4,3.2c2.7,2.1,4.1,5.2,4.1,9.1c0,3.9-1.4,7-4.1,9.1c-2.7,2.1-6.5,3.2-11.4,3.2H151.1z
			 M158.1,71.2h0.9c2,0,3.7-0.5,5.2-1.4c1.4-0.9,2.1-2.4,2.1-4.6c0-2.1-0.7-3.7-2.1-4.6c-1.4-0.9-3.1-1.4-5.2-1.4h-0.9V71.2z"/>
		<path fill="#FFFFFF" d="M187.7,45h18.4c3.4,0,6.6,0.5,9.5,1.4c2.9,0.9,5.4,2.2,7.6,4c2.1,1.8,3.8,3.9,5,6.5
			c1.2,2.6,1.8,5.6,1.8,8.9c0,2.7-0.4,4.9-1.1,6.8c-0.7,1.9-1.6,3.4-2.5,4.6c-1.1,1.4-2.3,2.6-3.6,3.5l10,17.6h-20l-8-13.5v13.5h-17
			V45z M204.3,79.8c2.1,0,4.1-0.2,6.1-0.6L218,92h2.5l-8-13.4c2.9-1,5.2-2.6,6.9-4.7c1.7-2.1,2.6-4.8,2.6-8.2c0-2.3-0.5-4.4-1.4-6.2
			c-0.9-1.8-2.1-3.2-3.7-4.4c-1.6-1.2-3.4-2.1-5.6-2.7c-2.1-0.6-4.5-0.9-7-0.9h-8.6V92h2.1V79.8H204.3z M197.8,77.9V53.3h6.6
			c4.9,0,8.7,1.1,11.4,3.2c2.7,2.1,4.1,5.2,4.1,9.1c0,3.9-1.4,7-4.1,9.1c-2.7,2.1-6.5,3.2-11.4,3.2H197.8z M204.7,71.2h0.9
			c2,0,3.7-0.5,5.2-1.4c1.4-0.9,2.1-2.4,2.1-4.6c0-2.1-0.7-3.7-2.1-4.6c-1.4-0.9-3.1-1.4-5.2-1.4h-0.9V71.2z"/>
		<path fill="#FFFFFF" d="M246.5,75.4L229.9,45h19l6.2,11.3l6.1-11.3h19l-16.6,30.4v23h-17V75.4z M256.1,92V72.8l11.7-21.4h-2.5
			l-10.2,19l-10.3-19h-2.4l11.6,21.4V92H256.1z"/>
	</g>
</g>
<g>
	<path fill="#FFFFFF" d="M58.2,156.7v-12.8h1.5v12.8H58.2z"/>
	<path fill="#FFFFFF" d="M71.6,156.9c-1.4,0-2.5-0.4-3.2-1.3s-1.1-2.1-1.1-3.6c0-1.6,0.4-2.9,1.2-3.7s1.9-1.3,3.3-1.3
		c0.5,0,0.9,0,1.4,0.1s0.8,0.2,1.1,0.4l-0.4,1.2c-0.3-0.1-0.7-0.2-1.1-0.3s-0.7-0.1-1-0.1c-2,0-2.9,1.2-2.9,3.7
		c0,1.2,0.2,2.1,0.7,2.7s1.2,0.9,2.1,0.9c0.8,0,1.6-0.2,2.5-0.5v1.3C73.4,156.7,72.5,156.9,71.6,156.9z"/>
	<path fill="#FFFFFF" d="M84.6,151.9c0,1.6-0.4,2.8-1.2,3.7s-1.9,1.3-3.3,1.3c-0.9,0-1.6-0.2-2.3-0.6s-1.2-1-1.5-1.7
		s-0.5-1.6-0.5-2.7c0-1.6,0.4-2.8,1.2-3.7s1.9-1.3,3.3-1.3c1.3,0,2.4,0.4,3.2,1.3S84.6,150.3,84.6,151.9z M77.3,151.9
		c0,1.2,0.2,2.2,0.7,2.8s1.2,1,2.2,1s1.7-0.3,2.2-1s0.7-1.6,0.7-2.8c0-1.2-0.2-2.2-0.7-2.8s-1.2-1-2.2-1c-1,0-1.7,0.3-2.2,0.9
		S77.3,150.6,77.3,151.9z"/>
	<path fill="#FFFFFF" d="M88.5,147v6.2c0,0.8,0.2,1.4,0.5,1.8s0.9,0.6,1.7,0.6c1,0,1.7-0.3,2.2-0.8s0.7-1.5,0.7-2.7V147h1.5v9.6
		h-1.2l-0.2-1.3h-0.1c-0.3,0.5-0.7,0.8-1.2,1.1s-1.1,0.4-1.8,0.4c-1.2,0-2-0.3-2.6-0.8s-0.9-1.4-0.9-2.7V147H88.5z"/>
	<path fill="#FFFFFF" d="M99.7,156.7h-1.5V143h1.5V156.7z"/>
	<path fill="#FFFFFF" d="M109.3,155.4L109.3,155.4c-0.8,1-1.8,1.5-3.1,1.5c-1.3,0-2.2-0.4-2.9-1.3s-1.1-2.1-1.1-3.7s0.4-2.8,1.1-3.7
		s1.7-1.3,2.9-1.3c1.3,0,2.3,0.5,3,1.4h0.1l-0.1-0.7l0-0.7V143h1.5v13.7h-1.2L109.3,155.4z M106.4,155.6c1,0,1.7-0.3,2.2-0.8
		s0.7-1.4,0.7-2.6v-0.3c0-1.4-0.2-2.3-0.7-2.9s-1.2-0.9-2.2-0.9c-0.9,0-1.5,0.3-2,1s-0.7,1.6-0.7,2.8c0,1.2,0.2,2.2,0.7,2.8
		S105.5,155.6,106.4,155.6z"/>
	<path fill="#FFFFFF" d="M120.4,156.7v-6.2c0-0.8-0.2-1.4-0.5-1.8s-0.9-0.6-1.7-0.6c-1,0-1.7,0.3-2.2,0.8s-0.7,1.4-0.7,2.7v5.1h-1.5
		V147h1.2l0.2,1.3h0.1c0.3-0.5,0.7-0.8,1.3-1.1s1.1-0.4,1.8-0.4c1.2,0,2,0.3,2.6,0.8s0.9,1.5,0.9,2.7v6.3H120.4z"/>
	<path fill="#FFFFFF" d="M126,143.8l0.1,0.2c-0.2,0.6-0.4,1.3-0.7,2s-0.6,1.5-0.9,2.2h-1.1c0.4-1.7,0.7-3.1,0.9-4.4H126z"/>
	<path fill="#FFFFFF" d="M131,155.7c0.3,0,0.5,0,0.7-0.1s0.4-0.1,0.6-0.1v1.1c-0.2,0.1-0.4,0.1-0.7,0.2s-0.6,0.1-0.8,0.1
		c-1.9,0-2.8-1-2.8-2.9v-5.7h-1.4v-0.7l1.4-0.6l0.6-2.1h0.8v2.2h2.8v1.1h-2.8v5.7c0,0.6,0.1,1,0.4,1.3S130.5,155.7,131,155.7z"/>
	<path fill="#FFFFFF" d="M142.3,156.9c-1.2,0-2.2-0.4-2.9-1.3s-1-2.1-1-3.7c0-1.6,0.4-2.8,1.1-3.7s1.7-1.3,2.9-1.3
		c1.3,0,2.3,0.5,3,1.5h0.1l0.2-1.3h1.2v14h-1.5v-4.1c0-0.6,0-1.1,0.1-1.5h-0.1C144.7,156.4,143.7,156.9,142.3,156.9z M142.6,155.6
		c1,0,1.7-0.3,2.1-0.8s0.7-1.4,0.7-2.6v-0.3c0-1.3-0.2-2.3-0.7-2.9s-1.2-0.9-2.2-0.9c-0.9,0-1.5,0.3-2,1s-0.7,1.6-0.7,2.8
		s0.2,2.1,0.7,2.8S141.7,155.6,142.6,155.6z"/>
	<path fill="#FFFFFF" d="M151.3,147v6.2c0,0.8,0.2,1.4,0.5,1.8s0.9,0.6,1.7,0.6c1,0,1.7-0.3,2.2-0.8s0.7-1.5,0.7-2.7V147h1.5v9.6
		h-1.2l-0.2-1.3h-0.1c-0.3,0.5-0.7,0.8-1.2,1.1s-1.1,0.4-1.8,0.4c-1.2,0-2-0.3-2.6-0.8s-0.9-1.4-0.9-2.7V147H151.3z"/>
	<path fill="#FFFFFF" d="M160.9,144.4c0-0.3,0.1-0.6,0.2-0.7s0.4-0.2,0.6-0.2c0.2,0,0.4,0.1,0.6,0.2s0.3,0.4,0.3,0.7
		s-0.1,0.6-0.3,0.7s-0.4,0.2-0.6,0.2c-0.2,0-0.5-0.1-0.6-0.2S160.9,144.8,160.9,144.4z M162.5,156.7H161V147h1.5V156.7z"/>
	<path fill="#FFFFFF" d="M168.7,155.7c0.3,0,0.5,0,0.7-0.1s0.4-0.1,0.6-0.1v1.1c-0.2,0.1-0.4,0.1-0.7,0.2s-0.6,0.1-0.8,0.1
		c-1.9,0-2.8-1-2.8-2.9v-5.7h-1.4v-0.7l1.4-0.6l0.6-2.1h0.8v2.2h2.8v1.1h-2.8v5.7c0,0.6,0.1,1,0.4,1.3S168.2,155.7,168.7,155.7z"/>
	<path fill="#FFFFFF" d="M176,156.9c-1.4,0-2.5-0.4-3.4-1.3s-1.2-2.1-1.2-3.6c0-1.6,0.4-2.8,1.1-3.7s1.8-1.4,3.1-1.4
		c1.2,0,2.2,0.4,2.9,1.2s1.1,1.8,1.1,3.1v0.9h-6.6c0,1.1,0.3,2,0.9,2.6s1.3,0.9,2.3,0.9c1,0,2.1-0.2,3.1-0.7v1.3
		c-0.5,0.2-1,0.4-1.5,0.5S176.6,156.9,176,156.9z M175.6,148.1c-0.8,0-1.4,0.3-1.9,0.8s-0.7,1.2-0.8,2.1h5c0-0.9-0.2-1.6-0.6-2.1
		S176.3,148.1,175.6,148.1z"/>
	<path fill="#FFFFFF" d="M191,148.2h-2.5v8.5h-1.5v-8.5h-1.7v-0.7l1.7-0.5v-0.5c0-2.4,1-3.6,3.1-3.6c0.5,0,1.1,0.1,1.8,0.3l-0.4,1.2
		c-0.6-0.2-1-0.3-1.4-0.3c-0.6,0-1,0.2-1.2,0.5s-0.4,1-0.4,1.8v0.6h2.5V148.2z M192.7,144.4c0-0.3,0.1-0.6,0.2-0.7s0.4-0.2,0.6-0.2
		c0.2,0,0.4,0.1,0.6,0.2s0.3,0.4,0.3,0.7s-0.1,0.6-0.3,0.7s-0.4,0.2-0.6,0.2c-0.2,0-0.5-0.1-0.6-0.2S192.7,144.8,192.7,144.4z
		 M194.2,156.7h-1.5V147h1.5V156.7z"/>
	<path fill="#FFFFFF" d="M203.9,156.7v-6.2c0-0.8-0.2-1.4-0.5-1.8s-0.9-0.6-1.7-0.6c-1,0-1.7,0.3-2.2,0.8s-0.7,1.4-0.7,2.7v5.1h-1.5
		V147h1.2l0.2,1.3h0.1c0.3-0.5,0.7-0.8,1.3-1.1s1.1-0.4,1.8-0.4c1.2,0,2,0.3,2.6,0.8s0.9,1.5,0.9,2.7v6.3H203.9z"/>
	<path fill="#FFFFFF" d="M214.9,155.4L214.9,155.4c-0.8,1-1.8,1.5-3.1,1.5c-1.3,0-2.2-0.4-2.9-1.3s-1.1-2.1-1.1-3.7s0.4-2.8,1.1-3.7
		s1.7-1.3,2.9-1.3c1.3,0,2.3,0.5,3,1.4h0.1l-0.1-0.7l0-0.7V143h1.5v13.7h-1.2L214.9,155.4z M212,155.6c1,0,1.7-0.3,2.2-0.8
		s0.7-1.4,0.7-2.6v-0.3c0-1.4-0.2-2.3-0.7-2.9s-1.2-0.9-2.2-0.9c-0.9,0-1.5,0.3-2,1s-0.7,1.6-0.7,2.8c0,1.2,0.2,2.2,0.7,2.8
		S211.1,155.6,212,155.6z"/>
	<path fill="#FFFFFF" d="M232,156.7l-1.8-5.7c-0.1-0.3-0.3-1.1-0.6-2.4h-0.1c-0.2,1-0.4,1.8-0.6,2.4l-1.8,5.6h-1.7l-2.6-9.6h1.5
		c0.6,2.4,1.1,4.3,1.4,5.5s0.5,2.1,0.6,2.6h0.1c0.1-0.3,0.2-0.8,0.3-1.3s0.3-1,0.4-1.3l1.8-5.5h1.6l1.7,5.5c0.3,1,0.6,1.9,0.7,2.5
		h0.1c0-0.2,0.1-0.5,0.2-1s0.7-2.8,1.8-7.1h1.5l-2.7,9.6H232z"/>
	<path fill="#FFFFFF" d="M244.7,156.7v-6.2c0-0.8-0.2-1.4-0.5-1.8s-0.9-0.6-1.7-0.6c-1,0-1.8,0.3-2.2,0.8s-0.7,1.5-0.7,2.7v5h-1.5
		V143h1.5v4.1c0,0.5,0,0.9-0.1,1.2h0.1c0.3-0.5,0.7-0.8,1.2-1.1s1.1-0.4,1.8-0.4c1.2,0,2.1,0.3,2.6,0.8s0.9,1.4,0.9,2.7v6.3H244.7z"
		/>
	<path fill="#FFFFFF" d="M255.1,156.7l-0.3-1.4h-0.1c-0.5,0.6-1,1-1.4,1.2s-1.1,0.3-1.8,0.3c-1,0-1.7-0.2-2.2-0.7s-0.8-1.2-0.8-2.1
		c0-1.9,1.6-3,4.7-3.1l1.6-0.1v-0.6c0-0.8-0.2-1.3-0.5-1.7s-0.8-0.5-1.6-0.5c-0.8,0-1.7,0.2-2.7,0.7l-0.4-1.1c0.5-0.3,1-0.5,1.6-0.6
		s1.1-0.2,1.7-0.2c1.1,0,2,0.3,2.6,0.8s0.8,1.3,0.8,2.5v6.6H255.1z M251.8,155.7c0.9,0,1.6-0.2,2.1-0.7s0.8-1.2,0.8-2.1v-0.9
		l-1.5,0.1c-1.2,0-2,0.2-2.5,0.5s-0.8,0.8-0.8,1.5c0,0.5,0.2,0.9,0.5,1.2S251.2,155.7,251.8,155.7z"/>
	<path fill="#FFFFFF" d="M262.3,155.7c0.3,0,0.5,0,0.7-0.1s0.4-0.1,0.6-0.1v1.1c-0.2,0.1-0.4,0.1-0.7,0.2s-0.6,0.1-0.8,0.1
		c-1.9,0-2.8-1-2.8-2.9v-5.7h-1.4v-0.7l1.4-0.6l0.6-2.1h0.8v2.2h2.8v1.1h-2.8v5.7c0,0.6,0.1,1,0.4,1.3S261.8,155.7,262.3,155.7z"/>
	<path fill="#FFFFFF" d="M84.6,174h1.6l2.1,5.5c0.5,1.3,0.8,2.2,0.9,2.7h0.1c0.1-0.3,0.2-0.8,0.5-1.5s1-2.9,2.4-6.7h1.6l-4.1,11
		c-0.4,1.1-0.9,1.9-1.4,2.3s-1.2,0.7-2,0.7c-0.4,0-0.9,0-1.3-0.1v-1.2c0.3,0.1,0.7,0.1,1.1,0.1c1,0,1.7-0.6,2.1-1.7l0.5-1.4
		L84.6,174z"/>
	<path fill="#FFFFFF" d="M103.6,178.9c0,1.6-0.4,2.8-1.2,3.7s-1.9,1.3-3.3,1.3c-0.9,0-1.6-0.2-2.3-0.6s-1.2-1-1.5-1.7
		s-0.5-1.6-0.5-2.7c0-1.6,0.4-2.8,1.2-3.7s1.9-1.3,3.3-1.3c1.3,0,2.4,0.4,3.2,1.3S103.6,177.3,103.6,178.9z M96.2,178.9
		c0,1.2,0.2,2.2,0.7,2.8s1.2,1,2.2,1s1.7-0.3,2.2-1s0.7-1.6,0.7-2.8c0-1.2-0.2-2.2-0.7-2.8s-1.2-1-2.2-1c-1,0-1.7,0.3-2.2,0.9
		S96.2,177.6,96.2,178.9z"/>
	<path fill="#FFFFFF" d="M107.5,174v6.2c0,0.8,0.2,1.4,0.5,1.8s0.9,0.6,1.7,0.6c1,0,1.7-0.3,2.2-0.8s0.7-1.5,0.7-2.7V174h1.5v9.6
		h-1.2l-0.2-1.3h-0.1c-0.3,0.5-0.7,0.8-1.2,1.1s-1.1,0.4-1.8,0.4c-1.2,0-2-0.3-2.6-0.8s-0.9-1.4-0.9-2.7V174H107.5z"/>
	<path fill="#FFFFFF" d="M118.3,170.8l0.1,0.2c-0.2,0.6-0.4,1.3-0.7,2s-0.6,1.5-0.9,2.2h-1.1c0.4-1.7,0.7-3.1,0.9-4.4H118.3z"/>
	<path fill="#FFFFFF" d="M124.6,173.9c0.4,0,0.8,0,1.2,0.1l-0.2,1.4c-0.4-0.1-0.8-0.1-1.1-0.1c-0.8,0-1.4,0.3-2,0.9
		s-0.8,1.4-0.8,2.4v5.2h-1.5V174h1.2l0.2,1.8h0.1c0.4-0.6,0.8-1.1,1.3-1.5S124,173.9,124.6,173.9z"/>
	<path fill="#FFFFFF" d="M131.6,183.9c-1.4,0-2.5-0.4-3.4-1.3s-1.2-2.1-1.2-3.6c0-1.6,0.4-2.8,1.1-3.7s1.8-1.4,3.1-1.4
		c1.2,0,2.2,0.4,2.9,1.2s1.1,1.8,1.1,3.1v0.9h-6.6c0,1.1,0.3,2,0.9,2.6s1.3,0.9,2.3,0.9c1,0,2.1-0.2,3.1-0.7v1.3
		c-0.5,0.2-1,0.4-1.5,0.5S132.3,183.9,131.6,183.9z M131.2,175.1c-0.8,0-1.4,0.3-1.9,0.8s-0.7,1.2-0.8,2.1h5c0-0.9-0.2-1.6-0.6-2.1
		S132,175.1,131.2,175.1z"/>
	<path fill="#FFFFFF" d="M143.8,183.7h-1.5V170h1.5V183.7z"/>
	<path fill="#FFFFFF" d="M155.2,178.9c0,1.6-0.4,2.8-1.2,3.7s-1.9,1.3-3.3,1.3c-0.9,0-1.6-0.2-2.3-0.6s-1.2-1-1.5-1.7
		s-0.5-1.6-0.5-2.7c0-1.6,0.4-2.8,1.2-3.7s1.9-1.3,3.3-1.3c1.3,0,2.4,0.4,3.2,1.3S155.2,177.3,155.2,178.9z M147.9,178.9
		c0,1.2,0.2,2.2,0.7,2.8s1.2,1,2.2,1s1.7-0.3,2.2-1s0.7-1.6,0.7-2.8c0-1.2-0.2-2.2-0.7-2.8s-1.2-1-2.2-1c-1,0-1.7,0.3-2.2,0.9
		S147.9,177.6,147.9,178.9z"/>
	<path fill="#FFFFFF" d="M166.1,178.9c0,1.6-0.4,2.8-1.2,3.7s-1.9,1.3-3.3,1.3c-0.9,0-1.6-0.2-2.3-0.6s-1.2-1-1.5-1.7
		s-0.5-1.6-0.5-2.7c0-1.6,0.4-2.8,1.2-3.7s1.9-1.3,3.3-1.3c1.3,0,2.4,0.4,3.2,1.3S166.1,177.3,166.1,178.9z M158.7,178.9
		c0,1.2,0.2,2.2,0.7,2.8s1.2,1,2.2,1s1.7-0.3,2.2-1s0.7-1.6,0.7-2.8c0-1.2-0.2-2.2-0.7-2.8s-1.2-1-2.2-1c-1,0-1.7,0.3-2.2,0.9
		S158.7,177.6,158.7,178.9z"/>
	<path fill="#FFFFFF" d="M170.1,178.7c0.3-0.4,0.6-0.8,1.2-1.4l3.1-3.3h1.7l-3.9,4.1l4.2,5.5h-1.8l-3.4-4.6l-1.1,0.9v3.6h-1.4V170
		h1.4v7.3C170.1,177.6,170.1,178.1,170.1,178.7L170.1,178.7z"/>
	<path fill="#FFFFFF" d="M178,171.4c0-0.3,0.1-0.6,0.2-0.7s0.4-0.2,0.6-0.2c0.2,0,0.4,0.1,0.6,0.2s0.3,0.4,0.3,0.7s-0.1,0.6-0.3,0.7
		s-0.4,0.2-0.6,0.2c-0.2,0-0.5-0.1-0.6-0.2S178,171.8,178,171.4z M179.6,183.7h-1.5V174h1.5V183.7z"/>
	<path fill="#FFFFFF" d="M189.2,183.7v-6.2c0-0.8-0.2-1.4-0.5-1.8s-0.9-0.6-1.7-0.6c-1,0-1.7,0.3-2.2,0.8s-0.7,1.4-0.7,2.7v5.1h-1.5
		V174h1.2l0.2,1.3h0.1c0.3-0.5,0.7-0.8,1.3-1.1s1.1-0.4,1.8-0.4c1.2,0,2,0.3,2.6,0.8s0.9,1.5,0.9,2.7v6.3H189.2z"/>
	<path fill="#FFFFFF" d="M201.6,174v0.9l-1.8,0.2c0.2,0.2,0.3,0.5,0.4,0.8s0.2,0.7,0.2,1.1c0,0.9-0.3,1.7-1,2.3s-1.5,0.8-2.7,0.8
		c-0.3,0-0.6,0-0.8-0.1c-0.6,0.3-0.9,0.7-0.9,1.2c0,0.3,0.1,0.5,0.3,0.6s0.6,0.2,1.1,0.2h1.7c1,0,1.8,0.2,2.4,0.7s0.8,1.1,0.8,1.9
		c0,1.1-0.4,1.9-1.3,2.4s-2.1,0.8-3.7,0.8c-1.3,0-2.2-0.2-2.9-0.7s-1-1.1-1-2c0-0.6,0.2-1.1,0.6-1.5s0.9-0.7,1.6-0.9
		c-0.2-0.1-0.5-0.3-0.6-0.5s-0.3-0.5-0.3-0.8c0-0.4,0.1-0.7,0.3-0.9s0.5-0.5,0.9-0.8c-0.5-0.2-0.9-0.6-1.2-1s-0.5-1.1-0.5-1.7
		c0-1.1,0.3-1.9,0.9-2.4s1.5-0.9,2.7-0.9c0.5,0,1,0.1,1.4,0.2H201.6z M193.9,185.3c0,0.5,0.2,0.9,0.7,1.2s1.1,0.4,1.9,0.4
		c1.2,0,2.1-0.2,2.7-0.5s0.9-0.9,0.9-1.5c0-0.5-0.2-0.9-0.5-1.1s-0.9-0.3-1.8-0.3H196c-0.7,0-1.2,0.2-1.5,0.5
		S193.9,184.7,193.9,185.3z M194.7,177.1c0,0.7,0.2,1.2,0.6,1.5s0.9,0.5,1.6,0.5c1.4,0,2.1-0.7,2.1-2.1c0-1.4-0.7-2.2-2.2-2.2
		c-0.7,0-1.2,0.2-1.6,0.6S194.7,176.4,194.7,177.1z"/>
	<path fill="#FFFFFF" d="M212.6,175.2h-2.5v8.5h-1.5v-8.5h-1.7v-0.7l1.7-0.5v-0.5c0-2.4,1-3.6,3.1-3.6c0.5,0,1.1,0.1,1.8,0.3
		l-0.4,1.2c-0.6-0.2-1-0.3-1.4-0.3c-0.6,0-1,0.2-1.2,0.5s-0.4,1-0.4,1.8v0.6h2.5V175.2z"/>
	<path fill="#FFFFFF" d="M222.6,178.9c0,1.6-0.4,2.8-1.2,3.7s-1.9,1.3-3.3,1.3c-0.9,0-1.6-0.2-2.3-0.6s-1.2-1-1.5-1.7
		s-0.5-1.6-0.5-2.7c0-1.6,0.4-2.8,1.2-3.7s1.9-1.3,3.3-1.3c1.3,0,2.4,0.4,3.2,1.3S222.6,177.3,222.6,178.9z M215.3,178.9
		c0,1.2,0.2,2.2,0.7,2.8s1.2,1,2.2,1s1.7-0.3,2.2-1s0.7-1.6,0.7-2.8c0-1.2-0.2-2.2-0.7-2.8s-1.2-1-2.2-1c-1,0-1.7,0.3-2.2,0.9
		S215.3,177.6,215.3,178.9z"/>
	<path fill="#FFFFFF" d="M229.6,173.9c0.4,0,0.8,0,1.2,0.1l-0.2,1.4c-0.4-0.1-0.8-0.1-1.1-0.1c-0.8,0-1.4,0.3-2,0.9
		s-0.8,1.4-0.8,2.4v5.2h-1.5V174h1.2l0.2,1.8h0.1c0.4-0.6,0.8-1.1,1.3-1.5S229,173.9,229.6,173.9z"/>
	<path fill="#FFFFFF" d="M232.3,182.7c0-0.4,0.1-0.7,0.3-0.9s0.4-0.3,0.8-0.3c0.3,0,0.6,0.1,0.8,0.3s0.3,0.5,0.3,0.9
		c0,0.4-0.1,0.7-0.3,0.9s-0.5,0.3-0.8,0.3c-0.3,0-0.5-0.1-0.7-0.3S232.3,183.2,232.3,182.7z"/>
	<path fill="#FFFFFF" d="M51.8,237.7h-1.5v-6h-6.8v6h-1.5v-12.8h1.5v5.5h6.8v-5.5h1.5V237.7z"/>
	<path fill="#FFFFFF" d="M63.5,232.9c0,1.6-0.4,2.8-1.2,3.7s-1.9,1.3-3.3,1.3c-0.9,0-1.6-0.2-2.3-0.6s-1.2-1-1.5-1.7
		s-0.5-1.6-0.5-2.7c0-1.6,0.4-2.8,1.2-3.7s1.9-1.3,3.3-1.3c1.3,0,2.4,0.4,3.2,1.3S63.5,231.3,63.5,232.9z M56.1,232.9
		c0,1.2,0.2,2.2,0.7,2.8s1.2,1,2.2,1s1.7-0.3,2.2-1s0.7-1.6,0.7-2.8c0-1.2-0.2-2.2-0.7-2.8s-1.2-1-2.2-1c-1,0-1.7,0.3-2.2,0.9
		S56.1,231.6,56.1,232.9z"/>
	<path fill="#FFFFFF" d="M73.9,237.7l-1.8-5.7c-0.1-0.3-0.3-1.1-0.6-2.4h-0.1c-0.2,1-0.4,1.8-0.6,2.4l-1.8,5.6h-1.7l-2.6-9.6h1.5
		c0.6,2.4,1.1,4.3,1.4,5.5s0.5,2.1,0.6,2.6h0.1c0.1-0.3,0.2-0.8,0.3-1.3s0.3-1,0.4-1.3l1.8-5.5h1.6l1.7,5.5c0.3,1,0.6,1.9,0.7,2.5
		h0.1c0-0.2,0.1-0.5,0.2-1s0.7-2.8,1.8-7.1h1.5l-2.7,9.6H73.9z"/>
	<path fill="#FFFFFF" d="M90.6,237.7l-0.3-1.4h-0.1c-0.5,0.6-1,1-1.4,1.2s-1.1,0.3-1.8,0.3c-1,0-1.7-0.2-2.2-0.7S84,235.9,84,235
		c0-1.9,1.6-3,4.7-3.1l1.6-0.1v-0.6c0-0.8-0.2-1.3-0.5-1.7s-0.8-0.5-1.6-0.5c-0.8,0-1.7,0.2-2.7,0.7l-0.4-1.1c0.5-0.3,1-0.5,1.6-0.6
		s1.1-0.2,1.7-0.2c1.1,0,2,0.3,2.6,0.8s0.8,1.3,0.8,2.5v6.6H90.6z M87.3,236.7c0.9,0,1.6-0.2,2.1-0.7s0.8-1.2,0.8-2.1v-0.9l-1.5,0.1
		c-1.2,0-2,0.2-2.5,0.5s-0.8,0.8-0.8,1.5c0,0.5,0.2,0.9,0.5,1.2S86.7,236.7,87.3,236.7z"/>
	<path fill="#FFFFFF" d="M99.2,227.9c1.3,0,2.2,0.4,2.9,1.3s1.1,2.1,1.1,3.7s-0.4,2.8-1.1,3.7s-1.7,1.3-2.9,1.3
		c-0.6,0-1.2-0.1-1.7-0.3s-1-0.6-1.3-1.1h-0.1l-0.3,1.2h-1V224h1.5v3.3c0,0.7,0,1.4-0.1,2h0.1C96.8,228.4,97.8,227.9,99.2,227.9z
		 M99,229.1c-1,0-1.7,0.3-2.2,0.9s-0.7,1.5-0.7,2.9s0.2,2.3,0.7,2.9s1.2,0.9,2.2,0.9c0.9,0,1.6-0.3,2-1s0.7-1.6,0.7-2.8
		c0-1.3-0.2-2.2-0.7-2.8S99.9,229.1,99,229.1z"/>
	<path fill="#FFFFFF" d="M114,232.9c0,1.6-0.4,2.8-1.2,3.7s-1.9,1.3-3.3,1.3c-0.9,0-1.6-0.2-2.3-0.6s-1.2-1-1.5-1.7
		s-0.5-1.6-0.5-2.7c0-1.6,0.4-2.8,1.2-3.7s1.9-1.3,3.3-1.3c1.3,0,2.4,0.4,3.2,1.3S114,231.3,114,232.9z M106.7,232.9
		c0,1.2,0.2,2.2,0.7,2.8s1.2,1,2.2,1s1.7-0.3,2.2-1s0.7-1.6,0.7-2.8c0-1.2-0.2-2.2-0.7-2.8s-1.2-1-2.2-1c-1,0-1.7,0.3-2.2,0.9
		S106.7,231.6,106.7,232.9z"/>
	<path fill="#FFFFFF" d="M118,228v6.2c0,0.8,0.2,1.4,0.5,1.8s0.9,0.6,1.7,0.6c1,0,1.7-0.3,2.2-0.8s0.7-1.5,0.7-2.7V228h1.5v9.6h-1.2
		l-0.2-1.3h-0.1c-0.3,0.5-0.7,0.8-1.2,1.1s-1.1,0.4-1.8,0.4c-1.2,0-2-0.3-2.6-0.8s-0.9-1.4-0.9-2.7V228H118z"/>
	<path fill="#FFFFFF" d="M130.8,236.7c0.3,0,0.5,0,0.7-0.1s0.4-0.1,0.6-0.1v1.1c-0.2,0.1-0.4,0.1-0.7,0.2s-0.6,0.1-0.8,0.1
		c-1.9,0-2.8-1-2.8-2.9v-5.7h-1.4v-0.7l1.4-0.6l0.6-2.1h0.8v2.2h2.8v1.1h-2.8v5.7c0,0.6,0.1,1,0.4,1.3S130.3,236.7,130.8,236.7z"/>
	<path fill="#FFFFFF" d="M144.9,235.1c0,0.9-0.3,1.6-1,2.1s-1.6,0.7-2.8,0.7c-1.3,0-2.3-0.2-3-0.6v-1.4c0.5,0.2,1,0.4,1.5,0.6
		s1,0.2,1.5,0.2c0.8,0,1.3-0.1,1.8-0.4s0.6-0.6,0.6-1.1c0-0.4-0.2-0.7-0.5-1s-1-0.6-1.9-0.9c-0.9-0.3-1.5-0.6-1.9-0.9
		s-0.7-0.5-0.8-0.8s-0.3-0.7-0.3-1.1c0-0.8,0.3-1.4,1-1.9s1.5-0.7,2.6-0.7c1,0,2.1,0.2,3,0.6l-0.5,1.2c-1-0.4-1.8-0.6-2.6-0.6
		c-0.7,0-1.2,0.1-1.6,0.3s-0.5,0.5-0.5,0.9c0,0.3,0.1,0.5,0.2,0.7s0.3,0.4,0.6,0.5s0.9,0.4,1.7,0.7c1.1,0.4,1.9,0.8,2.3,1.3
		S144.9,234.4,144.9,235.1z"/>
	<path fill="#FFFFFF" d="M155.6,232.9c0,1.6-0.4,2.8-1.2,3.7s-1.9,1.3-3.3,1.3c-0.9,0-1.6-0.2-2.3-0.6s-1.2-1-1.5-1.7
		s-0.5-1.6-0.5-2.7c0-1.6,0.4-2.8,1.2-3.7s1.9-1.3,3.3-1.3c1.3,0,2.4,0.4,3.2,1.3S155.6,231.3,155.6,232.9z M148.2,232.9
		c0,1.2,0.2,2.2,0.7,2.8s1.2,1,2.2,1s1.7-0.3,2.2-1s0.7-1.6,0.7-2.8c0-1.2-0.2-2.2-0.7-2.8s-1.2-1-2.2-1c-1,0-1.7,0.3-2.2,0.9
		S148.2,231.6,148.2,232.9z"/>
	<path fill="#FFFFFF" d="M170.4,237.7v-6.3c0-0.8-0.2-1.3-0.5-1.7s-0.8-0.6-1.5-0.6c-0.9,0-1.6,0.3-2,0.8s-0.7,1.3-0.7,2.4v5.4h-1.5
		v-6.3c0-0.8-0.2-1.3-0.5-1.7s-0.8-0.6-1.5-0.6c-0.9,0-1.6,0.3-2,0.8s-0.6,1.4-0.6,2.7v5.1h-1.5V228h1.2l0.2,1.3h0.1
		c0.3-0.5,0.7-0.8,1.2-1.1s1.1-0.4,1.7-0.4c1.5,0,2.5,0.5,3,1.6h0.1c0.3-0.5,0.7-0.9,1.2-1.2s1.2-0.4,1.9-0.4c1.1,0,1.9,0.3,2.4,0.8
		s0.8,1.5,0.8,2.7v6.3H170.4z"/>
	<path fill="#FFFFFF" d="M178.9,237.9c-1.4,0-2.5-0.4-3.4-1.3s-1.2-2.1-1.2-3.6c0-1.6,0.4-2.8,1.1-3.7s1.8-1.4,3.1-1.4
		c1.2,0,2.2,0.4,2.9,1.2s1.1,1.8,1.1,3.1v0.9h-6.6c0,1.1,0.3,2,0.9,2.6s1.3,0.9,2.3,0.9c1,0,2.1-0.2,3.1-0.7v1.3
		c-0.5,0.2-1,0.4-1.5,0.5S179.6,237.9,178.9,237.9z M178.6,229.1c-0.8,0-1.4,0.3-1.9,0.8s-0.7,1.2-0.8,2.1h5c0-0.9-0.2-1.6-0.6-2.1
		S179.3,229.1,178.6,229.1z"/>
	<path fill="#FFFFFF" d="M188.1,236.7c0.3,0,0.5,0,0.7-0.1s0.4-0.1,0.6-0.1v1.1c-0.2,0.1-0.4,0.1-0.7,0.2s-0.6,0.1-0.8,0.1
		c-1.9,0-2.8-1-2.8-2.9v-5.7h-1.4v-0.7l1.4-0.6l0.6-2.1h0.8v2.2h2.8v1.1h-2.8v5.7c0,0.6,0.1,1,0.4,1.3S187.6,236.7,188.1,236.7z"/>
	<path fill="#FFFFFF" d="M197.9,237.7v-6.2c0-0.8-0.2-1.4-0.5-1.8s-0.9-0.6-1.7-0.6c-1,0-1.8,0.3-2.2,0.8s-0.7,1.5-0.7,2.7v5h-1.5
		V224h1.5v4.1c0,0.5,0,0.9-0.1,1.2h0.1c0.3-0.5,0.7-0.8,1.2-1.1s1.1-0.4,1.8-0.4c1.2,0,2.1,0.3,2.6,0.8s0.9,1.4,0.9,2.7v6.3H197.9z"
		/>
	<path fill="#FFFFFF" d="M202.3,225.4c0-0.3,0.1-0.6,0.2-0.7s0.4-0.2,0.6-0.2c0.2,0,0.4,0.1,0.6,0.2s0.3,0.4,0.3,0.7
		s-0.1,0.6-0.3,0.7s-0.4,0.2-0.6,0.2c-0.2,0-0.5-0.1-0.6-0.2S202.3,225.8,202.3,225.4z M203.8,237.7h-1.5V228h1.5V237.7z"/>
	<path fill="#FFFFFF" d="M213.5,237.7v-6.2c0-0.8-0.2-1.4-0.5-1.8s-0.9-0.6-1.7-0.6c-1,0-1.7,0.3-2.2,0.8s-0.7,1.4-0.7,2.7v5.1h-1.5
		V228h1.2l0.2,1.3h0.1c0.3-0.5,0.7-0.8,1.3-1.1s1.1-0.4,1.8-0.4c1.2,0,2,0.3,2.6,0.8s0.9,1.5,0.9,2.7v6.3H213.5z"/>
	<path fill="#FFFFFF" d="M225.9,228v0.9l-1.8,0.2c0.2,0.2,0.3,0.5,0.4,0.8s0.2,0.7,0.2,1.1c0,0.9-0.3,1.7-1,2.3s-1.5,0.8-2.7,0.8
		c-0.3,0-0.6,0-0.8-0.1c-0.6,0.3-0.9,0.7-0.9,1.2c0,0.3,0.1,0.5,0.3,0.6s0.6,0.2,1.1,0.2h1.7c1,0,1.8,0.2,2.4,0.7s0.8,1.1,0.8,1.9
		c0,1.1-0.4,1.9-1.3,2.4s-2.1,0.8-3.7,0.8c-1.3,0-2.2-0.2-2.9-0.7s-1-1.1-1-2c0-0.6,0.2-1.1,0.6-1.5s0.9-0.7,1.6-0.9
		c-0.2-0.1-0.5-0.3-0.6-0.5s-0.3-0.5-0.3-0.8c0-0.4,0.1-0.7,0.3-0.9s0.5-0.5,0.9-0.8c-0.5-0.2-0.9-0.6-1.2-1s-0.5-1.1-0.5-1.7
		c0-1.1,0.3-1.9,0.9-2.4s1.5-0.9,2.7-0.9c0.5,0,1,0.1,1.4,0.2H225.9z M218.2,239.3c0,0.5,0.2,0.9,0.7,1.2s1.1,0.4,1.9,0.4
		c1.2,0,2.1-0.2,2.7-0.5s0.9-0.9,0.9-1.5c0-0.5-0.2-0.9-0.5-1.1s-0.9-0.3-1.8-0.3h-1.7c-0.7,0-1.2,0.2-1.5,0.5
		S218.2,238.7,218.2,239.3z M219,231.1c0,0.7,0.2,1.2,0.6,1.5s0.9,0.5,1.6,0.5c1.4,0,2.1-0.7,2.1-2.1c0-1.4-0.7-2.2-2.2-2.2
		c-0.7,0-1.2,0.2-1.6,0.6S219,230.4,219,231.1z"/>
	<path fill="#FFFFFF" d="M238.7,235.1c0,0.9-0.3,1.6-1,2.1s-1.6,0.7-2.8,0.7c-1.3,0-2.3-0.2-3-0.6v-1.4c0.5,0.2,1,0.4,1.5,0.6
		s1,0.2,1.5,0.2c0.8,0,1.3-0.1,1.8-0.4s0.6-0.6,0.6-1.1c0-0.4-0.2-0.7-0.5-1s-1-0.6-1.9-0.9c-0.9-0.3-1.5-0.6-1.9-0.9
		s-0.7-0.5-0.8-0.8s-0.3-0.7-0.3-1.1c0-0.8,0.3-1.4,1-1.9s1.5-0.7,2.6-0.7c1,0,2.1,0.2,3,0.6l-0.5,1.2c-1-0.4-1.8-0.6-2.6-0.6
		c-0.7,0-1.2,0.1-1.6,0.3s-0.5,0.5-0.5,0.9c0,0.3,0.1,0.5,0.2,0.7s0.3,0.4,0.6,0.5s0.9,0.4,1.7,0.7c1.1,0.4,1.9,0.8,2.3,1.3
		S238.7,234.4,238.7,235.1z"/>
	<path fill="#FFFFFF" d="M249,237.7l-1.8-5.7c-0.1-0.3-0.3-1.1-0.6-2.4h-0.1c-0.2,1-0.4,1.8-0.6,2.4l-1.8,5.6h-1.7l-2.6-9.6h1.5
		c0.6,2.4,1.1,4.3,1.4,5.5s0.5,2.1,0.6,2.6h0.1c0.1-0.3,0.2-0.8,0.3-1.3s0.3-1,0.4-1.3l1.8-5.5h1.6l1.7,5.5c0.3,1,0.6,1.9,0.7,2.5
		h0.1c0-0.2,0.1-0.5,0.2-1s0.7-2.8,1.8-7.1h1.5l-2.7,9.6H249z"/>
	<path fill="#FFFFFF" d="M259.2,237.9c-1.4,0-2.5-0.4-3.4-1.3s-1.2-2.1-1.2-3.6c0-1.6,0.4-2.8,1.1-3.7s1.8-1.4,3.1-1.4
		c1.2,0,2.2,0.4,2.9,1.2s1.1,1.8,1.1,3.1v0.9h-6.6c0,1.1,0.3,2,0.9,2.6s1.3,0.9,2.3,0.9c1,0,2.1-0.2,3.1-0.7v1.3
		c-0.5,0.2-1,0.4-1.5,0.5S259.8,237.9,259.2,237.9z M258.8,229.1c-0.8,0-1.4,0.3-1.9,0.8s-0.7,1.2-0.8,2.1h5c0-0.9-0.2-1.6-0.6-2.1
		S259.5,229.1,258.8,229.1z"/>
	<path fill="#FFFFFF" d="M269.3,237.9c-1.4,0-2.5-0.4-3.4-1.3s-1.2-2.1-1.2-3.6c0-1.6,0.4-2.8,1.1-3.7s1.8-1.4,3.1-1.4
		c1.2,0,2.2,0.4,2.9,1.2s1.1,1.8,1.1,3.1v0.9h-6.6c0,1.1,0.3,2,0.9,2.6s1.3,0.9,2.3,0.9c1,0,2.1-0.2,3.1-0.7v1.3
		c-0.5,0.2-1,0.4-1.5,0.5S269.9,237.9,269.3,237.9z M268.9,229.1c-0.8,0-1.4,0.3-1.9,0.8s-0.7,1.2-0.8,2.1h5c0-0.9-0.2-1.6-0.6-2.1
		S269.6,229.1,268.9,229.1z"/>
	<path fill="#FFFFFF" d="M278.4,236.7c0.3,0,0.5,0,0.7-0.1s0.4-0.1,0.6-0.1v1.1c-0.2,0.1-0.4,0.1-0.7,0.2s-0.6,0.1-0.8,0.1
		c-1.9,0-2.8-1-2.8-2.9v-5.7H274v-0.7l1.4-0.6l0.6-2.1h0.8v2.2h2.8v1.1h-2.8v5.7c0,0.6,0.1,1,0.4,1.3S277.9,236.7,278.4,236.7z"/>
	<path fill="#FFFFFF" d="M99.8,261.6c0,1.1-0.4,1.9-1.1,2.4s-1.8,0.8-3.1,0.8c-0.7,0-1.4,0-1.9-0.1s-1.1-0.2-1.7-0.4v-2.8
		c0.5,0.2,1.1,0.4,1.8,0.6s1.2,0.2,1.7,0.2c0.7,0,1.1-0.2,1.1-0.5c0-0.2-0.1-0.3-0.3-0.5s-0.8-0.4-1.8-0.8c-0.9-0.4-1.6-0.8-1.9-1.3
		s-0.5-1.1-0.5-1.8c0-0.9,0.4-1.6,1.1-2.2s1.7-0.8,3-0.8c0.7,0,1.3,0.1,1.9,0.2s1.2,0.4,1.8,0.6l-0.9,2.2c-0.5-0.2-0.9-0.4-1.5-0.5
		s-0.9-0.2-1.2-0.2c-0.6,0-0.8,0.1-0.8,0.4c0,0.2,0.1,0.3,0.3,0.4s0.8,0.4,1.7,0.7c0.7,0.3,1.2,0.6,1.6,0.8s0.6,0.6,0.8,1
		S99.8,261.1,99.8,261.6z"/>
	<path fill="#FFFFFF" d="M110.3,264.7l-1.1-4.7l-0.3-1.4l-0.2-1.2h-0.1c-0.3,1.6-0.5,2.7-0.6,3.1l-1,4.2h-3.6l-2.7-10h3.4l0.8,3.8
		c0.3,1.3,0.4,2.4,0.4,3.3h0.1c0-0.5,0.2-1.6,0.5-3.1l0.9-4h3.8l0.8,4.1c0.3,1.3,0.4,2.3,0.5,3h0.1c0-0.4,0.1-1,0.2-1.7
		s0.2-1.2,0.3-1.6l0.9-3.8h3.3l-2.7,10H110.3z"/>
	<path fill="#FFFFFF" d="M122.9,264.9c-1.7,0-2.9-0.4-3.9-1.3s-1.4-2.1-1.4-3.8c0-1.7,0.4-3,1.3-3.9s2.1-1.3,3.6-1.3
		c1.5,0,2.7,0.4,3.5,1.2s1.2,1.9,1.2,3.4v1.5h-6.1c0,0.6,0.2,1,0.6,1.3s0.9,0.5,1.6,0.5c0.6,0,1.2-0.1,1.7-0.2s1.1-0.3,1.6-0.6v2.5
		c-0.5,0.3-1.1,0.5-1.7,0.6S123.7,264.9,122.9,264.9z M122.7,256.9c-0.4,0-0.7,0.1-1,0.4s-0.4,0.7-0.5,1.2h3c0-0.5-0.1-0.9-0.4-1.2
		S123.1,256.9,122.7,256.9z"/>
	<path fill="#FFFFFF" d="M134,264.9c-1.7,0-2.9-0.4-3.9-1.3s-1.4-2.1-1.4-3.8c0-1.7,0.4-3,1.3-3.9s2.1-1.3,3.6-1.3
		c1.5,0,2.7,0.4,3.5,1.2s1.2,1.9,1.2,3.4v1.5h-6.1c0,0.6,0.2,1,0.6,1.3s0.9,0.5,1.6,0.5c0.6,0,1.2-0.1,1.7-0.2s1.1-0.3,1.6-0.6v2.5
		c-0.5,0.3-1.1,0.5-1.7,0.6S134.8,264.9,134,264.9z M133.8,256.9c-0.4,0-0.7,0.1-1,0.4s-0.4,0.7-0.5,1.2h3c0-0.5-0.1-0.9-0.4-1.2
		S134.2,256.9,133.8,256.9z"/>
	<path fill="#FFFFFF" d="M145.2,262.1c0.5,0,1-0.1,1.7-0.3v2.5c-0.5,0.2-0.9,0.3-1.3,0.4s-0.9,0.1-1.5,0.1c-1.2,0-2-0.3-2.5-0.8
		s-0.8-1.4-0.8-2.6v-4.1h-1.2v-1.4l1.5-1.1l0.9-2.1h2.2v2h2.4v2.6h-2.4v3.9C144.3,261.8,144.6,262.1,145.2,262.1z"/>
	<path fill="#FFFFFF" d="M153.2,252.2c0-0.5,0.1-0.9,0.4-1.2s0.8-0.4,1.4-0.4s1.1,0.1,1.4,0.4s0.4,0.6,0.4,1.1c0,1-0.6,1.5-1.8,1.5
		C153.8,253.8,153.2,253.3,153.2,252.2z M156.7,264.7h-3.4v-10h3.4V264.7z"/>
	<path fill="#FFFFFF" d="M165.4,264.7v-5.4c0-0.7-0.1-1.2-0.3-1.5s-0.5-0.5-0.9-0.5c-0.6,0-1,0.2-1.3,0.7s-0.4,1.3-0.4,2.4v4.4h-3.4
		v-10h2.6l0.4,1.2h0.2c0.3-0.5,0.7-0.8,1.2-1.1s1.1-0.4,1.8-0.4c1.1,0,2,0.3,2.6,1s0.9,1.5,0.9,2.7v6.5H165.4z"/>
	<path fill="#FFFFFF" d="M178.9,261.6c0,1.1-0.4,1.9-1.1,2.4s-1.8,0.8-3.1,0.8c-0.7,0-1.4,0-1.9-0.1s-1.1-0.2-1.7-0.4v-2.8
		c0.5,0.2,1.1,0.4,1.8,0.6s1.2,0.2,1.7,0.2c0.7,0,1.1-0.2,1.1-0.5c0-0.2-0.1-0.3-0.3-0.5s-0.8-0.4-1.8-0.8c-0.9-0.4-1.6-0.8-1.9-1.3
		s-0.5-1.1-0.5-1.8c0-0.9,0.4-1.6,1.1-2.2s1.7-0.8,3-0.8c0.7,0,1.3,0.1,1.9,0.2s1.2,0.4,1.8,0.6l-0.9,2.2c-0.5-0.2-0.9-0.4-1.5-0.5
		s-0.9-0.2-1.2-0.2c-0.6,0-0.8,0.1-0.8,0.4c0,0.2,0.1,0.3,0.3,0.4s0.8,0.4,1.7,0.7c0.7,0.3,1.2,0.6,1.6,0.8s0.6,0.6,0.8,1
		S178.9,261.1,178.9,261.6z"/>
	<path fill="#FFFFFF" d="M185.7,262.1c0.5,0,1-0.1,1.7-0.3v2.5c-0.5,0.2-0.9,0.3-1.3,0.4s-0.9,0.1-1.5,0.1c-1.2,0-2-0.3-2.5-0.8
		s-0.8-1.4-0.8-2.6v-4.1h-1.2v-1.4l1.5-1.1l0.9-2.1h2.2v2h2.4v2.6h-2.4v3.9C184.7,261.8,185,262.1,185.7,262.1z"/>
	<path fill="#FFFFFF" d="M193.9,264.9c-1.7,0-2.9-0.4-3.9-1.3s-1.4-2.1-1.4-3.8c0-1.7,0.4-3,1.3-3.9s2.1-1.3,3.6-1.3
		c1.5,0,2.7,0.4,3.5,1.2s1.2,1.9,1.2,3.4v1.5h-6.1c0,0.6,0.2,1,0.6,1.3s0.9,0.5,1.6,0.5c0.6,0,1.2-0.1,1.7-0.2s1.1-0.3,1.6-0.6v2.5
		c-0.5,0.3-1.1,0.5-1.7,0.6S194.7,264.9,193.9,264.9z M193.7,256.9c-0.4,0-0.7,0.1-1,0.4s-0.4,0.7-0.5,1.2h3c0-0.5-0.1-0.9-0.4-1.2
		S194.1,256.9,193.7,256.9z"/>
	<path fill="#FFFFFF" d="M206.7,264.7l-0.7-1.3H206c-0.5,0.6-0.9,1-1.4,1.2s-1.1,0.3-1.9,0.3c-0.9,0-1.7-0.3-2.2-0.8
		s-0.8-1.4-0.8-2.4c0-1.1,0.4-1.9,1.1-2.4s1.8-0.8,3.2-0.9l1.7-0.1v-0.1c0-0.8-0.4-1.2-1.2-1.2c-0.7,0-1.6,0.2-2.8,0.7l-1-2.3
		c1.2-0.6,2.6-0.9,4.4-0.9c1.3,0,2.3,0.3,3,0.9s1.1,1.5,1.1,2.7v6.5H206.7z M204.1,262.4c0.4,0,0.8-0.1,1.1-0.4s0.4-0.6,0.4-1v-0.8
		l-0.8,0c-1.1,0-1.7,0.5-1.7,1.2C203.2,262.1,203.5,262.4,204.1,262.4z"/>
	<path fill="#FFFFFF" d="M214.5,264.9c-0.7,0-1.3-0.2-1.9-0.6s-0.9-1-1.2-1.8s-0.4-1.7-0.4-2.8c0-1.6,0.3-2.9,1-3.8s1.5-1.4,2.7-1.4
		c0.6,0,1,0.1,1.5,0.3s0.8,0.6,1.1,1.1h0.1c-0.1-0.8-0.2-1.6-0.2-2.3V251h3.5v13.7H218l-0.7-1.3h-0.1
		C216.6,264.4,215.7,264.9,214.5,264.9z M215.9,262.1c0.6,0,0.9-0.2,1.2-0.5s0.3-0.9,0.4-1.6v-0.3c0-0.9-0.1-1.5-0.4-1.9
		s-0.6-0.6-1.2-0.6c-0.5,0-0.8,0.2-1.1,0.6s-0.4,1-0.4,1.8c0,0.8,0.1,1.4,0.4,1.8S215.4,262.1,215.9,262.1z"/>
	<path fill="#FFFFFF" d="M224.3,261.1v-0.5c0-0.7,0.1-1.2,0.3-1.7s0.6-0.9,1.2-1.4c0.8-0.7,1.3-1.2,1.5-1.5s0.3-0.8,0.3-1.2
		c0-0.6-0.2-1.1-0.6-1.4s-0.9-0.5-1.7-0.5c-0.5,0-0.9,0.1-1.4,0.2s-0.9,0.3-1.5,0.6l-0.5-1.2c1.1-0.6,2.3-0.9,3.5-0.9
		c1.1,0,2,0.3,2.6,0.8s0.9,1.3,0.9,2.3c0,0.4-0.1,0.8-0.2,1.1s-0.3,0.6-0.5,0.9s-0.7,0.8-1.4,1.4c-0.6,0.5-1,0.9-1.2,1.3
		s-0.3,0.8-0.3,1.3v0.3H224.3z M223.9,263.7c0-0.8,0.4-1.2,1.1-1.2c0.3,0,0.6,0.1,0.8,0.3s0.3,0.5,0.3,0.9c0,0.4-0.1,0.7-0.3,0.9
		s-0.4,0.3-0.8,0.3c-0.3,0-0.6-0.1-0.8-0.3S223.9,264.2,223.9,263.7z"/>
</g>
<line fill="none" stroke="#14443F" stroke-miterlimit="10" x1="121" y1="122" x2="180.8" y2="122"/>
<line fill="none" stroke="#14443F" stroke-miterlimit="10" x1="121" y1="204" x2="180.8" y2="204"/>
<polygon fill="#2B827A" points="18,306.9 0,298 0,0 18,0 "/>
</svg>
