<?xml version="1.0" encoding="utf-8"?>
<!-- Generator: Adobe Illustrator 18.0.0, SVG Export Plug-In . SVG Version: 6.00 Build 0)  -->
<!DOCTYPE svg PUBLIC "-//W3C//DTD SVG 1.0//EN" "http://www.w3.org/TR/2001/REC-SVG-20010904/DTD/svg10.dtd">
<svg version="1.0" id="Layer_1" xmlns="http://www.w3.org/2000/svg" xmlns:xlink="http://www.w3.org/1999/xlink" x="0px" y="0px"
	 viewBox="0 0 467.8 414" enable-background="new 0 0 467.8 414" xml:space="preserve">
<g>
	<g>
		<path fill="#FFFFFF" d="M87.4,110c0.5,0,0.8,0.4,0.8,0.8v30.3c0,0.5-0.4,0.8-0.8,0.8H57.1c-0.5,0-0.8-0.4-0.8-0.8v-30.3
			c0-0.5,0.4-0.8,0.8-0.8H87.4 M87.4,108H57.1c-1.6,0-2.8,1.3-2.8,2.8v30.3c0,1.6,1.3,2.8,2.8,2.8h30.3c1.6,0,2.8-1.3,2.8-2.8v-30.3
			C90.2,109.3,88.9,108,87.4,108L87.4,108z"/>
	</g>
	<g>
		<path fill="#FFFFFF" d="M87.4,164c0.5,0,0.8,0.4,0.8,0.8v83.7c0,0.5-0.4,0.8-0.8,0.8H57.1c-0.5,0-0.8-0.4-0.8-0.8v-83.7
			c0-0.5,0.4-0.8,0.8-0.8H87.4 M87.4,162H57.1c-1.6,0-2.8,1.3-2.8,2.8v83.7c0,1.6,1.3,2.8,2.8,2.8h30.3c1.6,0,2.8-1.3,2.8-2.8v-83.7
			C90.2,163.3,88.9,162,87.4,162L87.4,162z"/>
	</g>
	<g>
		<path fill="#FFFFFF" d="M141.4,164c0.5,0,0.8,0.4,0.8,0.8v30.3c0,0.5-0.4,0.8-0.8,0.8h-30.3c-0.5,0-0.8-0.4-0.8-0.8v-30.3
			c0-0.5,0.4-0.8,0.8-0.8H141.4 M141.4,162h-30.3c-1.6,0-2.8,1.3-2.8,2.8v30.3c0,1.6,1.3,2.8,2.8,2.8h30.3c1.6,0,2.8-1.3,2.8-2.8
			v-30.3C144.2,163.3,142.9,162,141.4,162L141.4,162z"/>
	</g>
	<g>
		<path fill="#FFFFFF" d="M87.4,272c0.5,0,0.8,0.4,0.8,0.8v30.3c0,0.5-0.4,0.8-0.8,0.8H57.1c-0.5,0-0.8-0.4-0.8-0.8v-30.3
			c0-0.5,0.4-0.8,0.8-0.8H87.4 M87.4,270H57.1c-1.6,0-2.8,1.3-2.8,2.8v30.3c0,1.6,1.3,2.8,2.8,2.8h30.3c1.6,0,2.8-1.3,2.8-2.8v-30.3
			C90.2,271.3,88.9,270,87.4,270L87.4,270z"/>
	</g>
	<g>
		<path fill="#FFFFFF" d="M194.8,218c0.5,0,0.8,0.4,0.8,0.8v84.6c0,0.5-0.4,0.8-0.8,0.8h-83.7c-0.5,0-0.8-0.4-0.8-0.8v-84.6
			c0-0.5,0.4-0.8,0.8-0.8H194.8 M194.8,216h-83.7c-1.6,0-2.8,1.3-2.8,2.8v84.6c0,1.6,1.3,2.8,2.8,2.8h83.7c1.6,0,2.8-1.3,2.8-2.8
			v-84.6C197.6,217.3,196.3,216,194.8,216L194.8,216z"/>
	</g>
	<g>
		<path fill="#FFFFFF" d="M186.2,110c0.5,0,0.8,0.4,0.8,0.8v30.3c0,0.5-0.4,0.8-0.8,0.8h-75.1c-0.5,0-0.8-0.4-0.8-0.8v-30.3
			c0-0.5,0.4-0.8,0.8-0.8H186.2 M186.2,108h-75.1c-1.6,0-2.8,1.3-2.8,2.8v30.3c0,1.6,1.3,2.8,2.8,2.8h75.1c1.6,0,2.8-1.3,2.8-2.8
			v-30.3C189,109.3,187.7,108,186.2,108L186.2,108z"/>
	</g>
	<g>
		<path fill="#FFFFFF" d="M249.4,110c0.5,0,0.8,0.4,0.8,0.8v30.3c0,0.5-0.4,0.8-0.8,0.8h-30.3c-0.5,0-0.8-0.4-0.8-0.8v-30.3
			c0-0.5,0.4-0.8,0.8-0.8H249.4 M249.4,108h-30.3c-1.6,0-2.8,1.3-2.8,2.8v30.3c0,1.6,1.3,2.8,2.8,2.8h30.3c1.6,0,2.8-1.3,2.8-2.8
			v-30.3C252.2,109.3,250.9,108,249.4,108L249.4,108z"/>
	</g>
	<g>
		<path fill="#FFFFFF" d="M249.4,56c0.5,0,0.8,0.4,0.8,0.8v30.3c0,0.5-0.4,0.8-0.8,0.8h-30.3c-0.5,0-0.8-0.4-0.8-0.8V56.8
			c0-0.5,0.4-0.8,0.8-0.8H249.4 M249.4,54h-30.3c-1.6,0-2.8,1.3-2.8,2.8v30.3c0,1.6,1.3,2.8,2.8,2.8h30.3c1.6,0,2.8-1.3,2.8-2.8
			V56.8C252.2,55.3,250.9,54,249.4,54L249.4,54z"/>
	</g>
	<g>
		<path fill="#FFFFFF" d="M303.4,2c0.5,0,0.8,0.4,0.8,0.8v30.3c0,0.5-0.4,0.8-0.8,0.8h-30.3c-0.5,0-0.8-0.4-0.8-0.8V2.8
			c0-0.5,0.4-0.8,0.8-0.8H303.4 M303.4,0h-30.3c-1.6,0-2.8,1.3-2.8,2.8v30.3c0,1.6,1.3,2.8,2.8,2.8h30.3c1.6,0,2.8-1.3,2.8-2.8V2.8
			C306.2,1.3,304.9,0,303.4,0L303.4,0z"/>
	</g>
	<g>
		<path fill="#FFFFFF" d="M249.4,218c0.5,0,0.8,0.4,0.8,0.8v30.3c0,0.5-0.4,0.8-0.8,0.8h-30.3c-0.5,0-0.8-0.4-0.8-0.8v-30.3
			c0-0.5,0.4-0.8,0.8-0.8H249.4 M249.4,216h-30.3c-1.6,0-2.8,1.3-2.8,2.8v30.3c0,1.6,1.3,2.8,2.8,2.8h30.3c1.6,0,2.8-1.3,2.8-2.8
			v-30.3C252.2,217.3,250.9,216,249.4,216L249.4,216z"/>
	</g>
	<g>
		<path fill="#FFFFFF" d="M33.4,218c0.5,0,0.8,0.4,0.8,0.8v30.3c0,0.5-0.4,0.8-0.8,0.8H3.1c-0.5,0-0.8-0.4-0.8-0.8v-30.3
			c0-0.5,0.4-0.8,0.8-0.8H33.4 M33.4,216H3.1c-1.6,0-2.8,1.3-2.8,2.8v30.3c0,1.6,1.3,2.8,2.8,2.8h30.3c1.6,0,2.8-1.3,2.8-2.8v-30.3
			C36.2,217.3,34.9,216,33.4,216L33.4,216z"/>
	</g>
	<g>
		<path fill="#FFFFFF" d="M249.4,272c0.5,0,0.8,0.4,0.8,0.8v30.3c0,0.5-0.4,0.8-0.8,0.8h-30.3c-0.5,0-0.8-0.4-0.8-0.8v-30.3
			c0-0.5,0.4-0.8,0.8-0.8H249.4 M249.4,270h-30.3c-1.6,0-2.8,1.3-2.8,2.8v30.3c0,1.6,1.3,2.8,2.8,2.8h30.3c1.6,0,2.8-1.3,2.8-2.8
			v-30.3C252.2,271.3,250.9,270,249.4,270L249.4,270z"/>
	</g>
	<g>
		<path fill="#FFFFFF" d="M249.4,164c0.5,0,0.8,0.4,0.8,0.8v30.3c0,0.5-0.4,0.8-0.8,0.8h-83.9c-0.5,0-0.8-0.4-0.8-0.8v-30.3
			c0-0.5,0.4-0.8,0.8-0.8H249.4 M249.4,162h-83.9c-1.6,0-2.8,1.3-2.8,2.8v30.3c0,1.6,1.3,2.8,2.8,2.8h83.9c1.6,0,2.8-1.3,2.8-2.8
			v-30.3C252.2,163.3,250.9,162,249.4,162L249.4,162z"/>
	</g>
	<g>
		<path fill="#FFFFFF" d="M303.4,110c0.5,0,0.8,0.4,0.8,0.8v30.3c0,0.5-0.4,0.8-0.8,0.8h-30.3c-0.5,0-0.8-0.4-0.8-0.8v-30.3
			c0-0.5,0.4-0.8,0.8-0.8H303.4 M303.4,108h-30.3c-1.6,0-2.8,1.3-2.8,2.8v30.3c0,1.6,1.3,2.8,2.8,2.8h30.3c1.6,0,2.8-1.3,2.8-2.8
			v-30.3C306.2,109.3,304.9,108,303.4,108L303.4,108z"/>
	</g>
	<g>
		<path fill="#FFFFFF" d="M303.4,164c0.5,0,0.8,0.4,0.8,0.8v30.3c0,0.5-0.4,0.8-0.8,0.8h-30.3c-0.5,0-0.8-0.4-0.8-0.8v-30.3
			c0-0.5,0.4-0.8,0.8-0.8H303.4 M303.4,162h-30.3c-1.6,0-2.8,1.3-2.8,2.8v30.3c0,1.6,1.3,2.8,2.8,2.8h30.3c1.6,0,2.8-1.3,2.8-2.8
			v-30.3C306.2,163.3,304.9,162,303.4,162L303.4,162z"/>
	</g>
	<g>
		<path fill="#FFFFFF" d="M357.4,164c0.5,0,0.8,0.4,0.8,0.8v30.3c0,0.5-0.4,0.8-0.8,0.8h-30.3c-0.5,0-0.8-0.4-0.8-0.8v-30.3
			c0-0.5,0.4-0.8,0.8-0.8H357.4 M357.4,162h-30.3c-1.6,0-2.8,1.3-2.8,2.8v30.3c0,1.6,1.3,2.8,2.8,2.8h30.3c1.6,0,2.8-1.3,2.8-2.8
			v-30.3C360.2,163.3,358.9,162,357.4,162L357.4,162z"/>
	</g>
	<g>
		<path fill="#FFFFFF" d="M411.4,164c0.5,0,0.8,0.4,0.8,0.8v30.3c0,0.5-0.4,0.8-0.8,0.8h-30.3c-0.5,0-0.8-0.4-0.8-0.8v-30.3
			c0-0.5,0.4-0.8,0.8-0.8H411.4 M411.4,162h-30.3c-1.6,0-2.8,1.3-2.8,2.8v30.3c0,1.6,1.3,2.8,2.8,2.8h30.3c1.6,0,2.8-1.3,2.8-2.8
			v-30.3C414.2,163.3,412.9,162,411.4,162L411.4,162z"/>
	</g>
	<g>
		<path fill="#FFFFFF" d="M411.4,272c0.5,0,0.8,0.4,0.8,0.8v30.3c0,0.5-0.4,0.8-0.8,0.8h-30.3c-0.5,0-0.8-0.4-0.8-0.8v-30.3
			c0-0.5,0.4-0.8,0.8-0.8H411.4 M411.4,270h-30.3c-1.6,0-2.8,1.3-2.8,2.8v30.3c0,1.6,1.3,2.8,2.8,2.8h30.3c1.6,0,2.8-1.3,2.8-2.8
			v-30.3C414.2,271.3,412.9,270,411.4,270L411.4,270z"/>
	</g>
	<g>
		<path fill="#FFFFFF" d="M303.4,326c0.5,0,0.8,0.4,0.8,0.8v30.3c0,0.5-0.4,0.8-0.8,0.8h-30.3c-0.5,0-0.8-0.4-0.8-0.8v-30.3
			c0-0.5,0.4-0.8,0.8-0.8H303.4 M303.4,324h-30.3c-1.6,0-2.8,1.3-2.8,2.8v30.3c0,1.6,1.3,2.8,2.8,2.8h30.3c1.6,0,2.8-1.3,2.8-2.8
			v-30.3C306.2,325.3,304.9,324,303.4,324L303.4,324z"/>
	</g>
	<g>
		<path fill="#FFFFFF" d="M248.8,326c0.5,0,0.8,0.4,0.8,0.8v30.3c0,0.5-0.4,0.8-0.8,0.8h-83.7c-0.5,0-0.8-0.4-0.8-0.8v-30.3
			c0-0.5,0.4-0.8,0.8-0.8H248.8 M248.8,324h-83.7c-1.6,0-2.8,1.3-2.8,2.8v30.3c0,1.6,1.3,2.8,2.8,2.8h83.7c1.6,0,2.8-1.3,2.8-2.8
			v-30.3C251.6,325.3,250.3,324,248.8,324L248.8,324z"/>
	</g>
	<g>
		<path fill="#FFFFFF" d="M195.4,380c0.5,0,0.8,0.4,0.8,0.8v30.3c0,0.5-0.4,0.8-0.8,0.8h-84.2c-0.5,0-0.8-0.4-0.8-0.8v-30.3
			c0-0.5,0.4-0.8,0.8-0.8H195.4 M195.4,378h-84.2c-1.6,0-2.8,1.3-2.8,2.8v30.3c0,1.6,1.3,2.8,2.8,2.8h84.2c1.6,0,2.8-1.3,2.8-2.8
			v-30.3C198.2,379.3,196.9,378,195.4,378L195.4,378z"/>
	</g>
	<g>
		<path fill="#FFFFFF" d="M464.9,218c0.5,0,0.8,0.4,0.8,0.8v30.3c0,0.5-0.4,0.8-0.8,0.8h-83.9c-0.5,0-0.8-0.4-0.8-0.8v-30.3
			c0-0.5,0.4-0.8,0.8-0.8H464.9 M464.9,216h-83.9c-1.6,0-2.8,1.3-2.8,2.8v30.3c0,1.6,1.3,2.8,2.8,2.8h83.9c1.6,0,2.8-1.3,2.8-2.8
			v-30.3C467.8,217.3,466.5,216,464.9,216L464.9,216z"/>
	</g>
	<g>
		<path fill="#FFFFFF" d="M303.4,218c0.5,0,0.8,0.4,0.8,0.8v84.3c0,0.5-0.4,0.8-0.8,0.8h-30.3c-0.5,0-0.8-0.4-0.8-0.8v-84.3
			c0-0.5,0.4-0.8,0.8-0.8H303.4 M303.4,216h-30.3c-1.6,0-2.8,1.3-2.8,2.8v84.3c0,1.6,1.3,2.8,2.8,2.8h30.3c1.6,0,2.8-1.3,2.8-2.8
			v-84.3C306.2,217.3,304.9,216,303.4,216L303.4,216z"/>
	</g>
	<g>
		<path fill="#FFFFFF" d="M357.8,56c0.5,0,0.8,0.4,0.8,0.8v30.7c0,0.5-0.4,0.8-0.8,0.8h-84.8c-0.5,0-0.8-0.4-0.8-0.8V56.8
			c0-0.5,0.4-0.8,0.8-0.8H357.8 M357.8,54h-84.8c-1.6,0-2.8,1.3-2.8,2.8v30.7c0,1.6,1.3,2.8,2.8,2.8h84.8c1.6,0,2.8-1.3,2.8-2.8
			V56.8C360.6,55.3,359.4,54,357.8,54L357.8,54z"/>
	</g>
	<g>
		<line fill="none" stroke="#FFFFFF" stroke-width="3" stroke-miterlimit="10" x1="90.2" y1="234" x2="108.2" y2="234"/>
		<line fill="none" stroke="#FFFFFF" stroke-width="3" stroke-miterlimit="10" x1="108.2" y1="288" x2="90.2" y2="288"/>
		<line fill="none" stroke="#FFFFFF" stroke-width="3" stroke-miterlimit="10" x1="126.2" y1="198" x2="126.2" y2="225"/>
		<line fill="none" stroke="#FFFFFF" stroke-width="3" stroke-miterlimit="10" x1="180.2" y1="198" x2="180.2" y2="216"/>
		<line fill="none" stroke="#FFFFFF" stroke-width="3" stroke-miterlimit="10" x1="189.2" y1="234" x2="225.2" y2="234"/>
		<line fill="none" stroke="#FFFFFF" stroke-width="3" stroke-miterlimit="10" x1="234.2" y1="252" x2="234.2" y2="270"/>
		<line fill="none" stroke="#FFFFFF" stroke-width="3" stroke-miterlimit="10" x1="270.2" y1="234" x2="252.2" y2="234"/>
		<line fill="none" stroke="#FFFFFF" stroke-width="3" stroke-miterlimit="10" x1="288.2" y1="216" x2="288.2" y2="189"/>
		<line fill="none" stroke="#FFFFFF" stroke-width="3" stroke-miterlimit="10" x1="90.2" y1="126" x2="108.2" y2="126"/>
		<line fill="none" stroke="#FFFFFF" stroke-width="3" stroke-miterlimit="10" x1="72.2" y1="144" x2="72.2" y2="162"/>
		<line fill="none" stroke="#FFFFFF" stroke-width="3" stroke-miterlimit="10" x1="252.2" y1="126" x2="270.2" y2="126"/>
		<line fill="none" stroke="#FFFFFF" stroke-width="3" stroke-miterlimit="10" x1="54.2" y1="234" x2="36.2" y2="234"/>
		<line fill="none" stroke="#FFFFFF" stroke-width="3" stroke-miterlimit="10" x1="180.2" y1="306" x2="180.2" y2="324"/>
		<line fill="none" stroke="#FFFFFF" stroke-width="3" stroke-miterlimit="10" x1="180.2" y1="360" x2="180.2" y2="378"/>
		<line fill="none" stroke="#FFFFFF" stroke-width="3" stroke-miterlimit="10" x1="288.2" y1="297" x2="288.2" y2="324"/>
		<line fill="none" stroke="#FFFFFF" stroke-width="3" stroke-miterlimit="10" x1="396.2" y1="198" x2="396.2" y2="216"/>
		<line fill="none" stroke="#FFFFFF" stroke-width="3" stroke-miterlimit="10" x1="360.2" y1="180" x2="378.2" y2="180"/>
		<line fill="none" stroke="#FFFFFF" stroke-width="3" stroke-miterlimit="10" x1="306.2" y1="180" x2="324.2" y2="180"/>
		<line fill="none" stroke="#FFFFFF" stroke-width="3" stroke-miterlimit="10" x1="252.2" y1="72" x2="270.2" y2="72"/>
		<line fill="none" stroke="#FFFFFF" stroke-width="3" stroke-miterlimit="10" x1="288.2" y1="36" x2="288.2" y2="63"/>
		<line fill="none" stroke="#FFFFFF" stroke-width="2" stroke-miterlimit="10" x1="171.2" y1="144" x2="171.2" y2="162"/>
		<line fill="none" stroke="#FFFFFF" stroke-width="2" stroke-miterlimit="10" x1="234.2" y1="144" x2="234.2" y2="162"/>
		<line fill="none" stroke="#FFFFFF" stroke-width="2" stroke-miterlimit="10" x1="234.2" y1="108" x2="234.2" y2="90"/>
		<line fill="none" stroke="#FFFFFF" stroke-width="2" stroke-miterlimit="10" x1="396.2" y1="243" x2="396.2" y2="270"/>
	</g>
	<line fill="none" stroke="#FFFFFF" stroke-width="2" stroke-miterlimit="10" x1="234.2" y1="297" x2="234.2" y2="324"/>
</g>
</svg>
