<svg xmlns="http://www.w3.org/2000/svg" viewBox="0 0 572.5 734"><defs><style>.cls-1{fill:#5c9fd8;}</style></defs><title>gene_1</title><g id="Layer_2" data-name="Layer 2"><g id="Layer_1-2" data-name="Layer 1"><path class="cls-1" d="M548.1,0c2.3,11.5,3.4,19.6,5.8,31.1,1.6,7.6,3.2,15.1,4.9,22.7,2.4,11.1,4.9,22.2,7.4,33.2a234.42,234.42,0,0,1,5.1,31.1c.6,7,1.2,14,1.2,21-.1,12.1-2,23.9-7.2,34.9a60.26,60.26,0,0,1-6.1,10.4c-6.4,8.7-13.1,17.2-19.6,25.9-2.7,3.5-5.1,7.2-7.6,10.9a82.92,82.92,0,0,1-18.3,19.1,89.79,89.79,0,0,1-14.5,9.4,187.39,187.39,0,0,1-18.9,8.4,241.84,241.84,0,0,1-44.1,12c-13.5,2.4-27.1,4.3-40.6,6.4-1.7.3-3.5.3-5.2.6-2.1.4-2.4.9-2,3,.6,2.9,1.4,5.8,1.8,8.8,2,12.4,4.1,24.8,5.8,37.3a197.12,197.12,0,0,1,1.3,35.2,151.9,151.9,0,0,1-6.9,40.1,114.32,114.32,0,0,1-10.9,24.2c-4.3,6.9-9.2,13.2-14,19.6-5.9,7.8-11.5,15.8-17.4,23.7-3.2,4.3-6.7,8.3-10.1,12.4-1.8,2.1-3.7,4.1-5.6,6.2a8,8,0,0,1-1.3,1.3c-6.5,5.1-12.8,10.5-19.6,15.1a174.78,174.78,0,0,1-25.4,14.1,278.26,278.26,0,0,1-26.2,10.2c-6.2,2-12.4,3.7-18.7,5.5-3.9,1.1-4,1-3.9,5.3.1,3.3.6,6.6.5,9.9-.2,7-.8,14-1.1,21a175.76,175.76,0,0,1-4.3,29.7,174.67,174.67,0,0,1-9.6,30,170.15,170.15,0,0,1-15.7,29.1c-3.5,5.2-7.5,10.1-11.2,15.2-4.3,5.8-8.9,11.4-13,17.3a212,212,0,0,1-18.4,22.9,213.25,213.25,0,0,1-19.6,18.4,8.06,8.06,0,0,0-1.2,1.4H61.3c-.3-4.8-1.5-10.4-2.9-12.8-1.8,1.4-3.5,2.8-5.3,4.2-3.5,2.8-7,5.7-10.4,8.6H0c1.3-1.1,2.5-2.4,3.9-3.4,14.7-10.7,29.3-21.4,44-32.1a17.83,17.83,0,0,1,2.7-2.1c2.9-1.3,2.9-3.4,2.3-6.1-3.1-14.6-6-29.3-9.1-43.9A85.24,85.24,0,0,0,40,634.6c-4-10.4-8.1-20.8-12.2-31.1-2.9-7.4-6.2-14.6-9-22.1-2-5.2-3.5-10.6-3.3-16.3a14.3,14.3,0,0,1,3.3-8.8c3-3.8,5.7-7.8,8.5-11.8,4.6-6.7,9-13.6,13.6-20.3,3-4.4,7.4-6.9,12.3-8.4A97.57,97.57,0,0,1,76,511.6c8.1-.6,16.2-1.2,24.4-1.2,6.1,0,12.2-.3,18.2-.6,9.4-.5,18.7-1.2,28.1-1.7,4.5-.3,9.1-.4,13.6-.7a15.86,15.86,0,0,0,5.3-1.3c8.7-3.8,17.3-7.7,26-11.6,2.1-.9,4.1-2,6.2-2.9,1.6-.7,2.2-1.7,1.7-3.4s-.7-3.2-1.1-4.8c-4.6-17.7-9.1-35.4-13.7-53-2.8-10.8-6.2-21.4-8.9-32.2q-3.15-12.6-5.1-25.5a80.39,80.39,0,0,1-.1-25.9c1.5-8.5,4.2-16.5,9.6-23.5s10.5-14.6,15.6-21.9c3.5-5,6.7-10.2,10.3-15.1,5-6.8,11.5-12,18.8-16.3,10.9-6.5,22.7-10.7,34.8-14.2a253.14,253.14,0,0,1,31.1-6.7c8.6-1.4,17.1-2.8,25.7-4,6.3-.9,12.7-1.4,19-2.1,2.7-.3,5.3-.4,8-.8,3.1-.4,3.6-1,2.9-4-1.9-9-4.1-17.9-5.8-26.9-2-10.6-3.8-21.3-5.3-32.1-.9-6.2-1-12.5-1.4-18.8-.3-4.6-.7-9.3-.6-13.9.3-14.8,2.1-29.4,6.6-43.6,2.6-8.3,5.8-16.6,10.8-23.9,5.1-7.6,10.4-15.1,15.5-22.7s10.5-15.3,15.7-23a131.14,131.14,0,0,1,18.9-22.4c7.5-7,6-5.6,14.8-10.9C428.05,0,521.1.19,548.1,0Zm-7.7,162.6c-.2-4.5-.6-8.9-.6-13.4,0-3-.8-5.4-3.2-7.3-2.6-2.1-5.1-4.2-7.6-6.4-5.6-4.8-11.2-9.7-16.8-14.5-4.6-4-9.3-7.9-13.9-11.8-5.5-4.7-10.8-9.5-16.3-14.2-6.5-5.6-13-11.1-19.5-16.6-6.6-5.7-13.2-11.5-19.8-17.2-5.5-4.7-11-9.4-16.4-14.1-4.6-4-9.2-7.9-13.8-11.9-1.6-1.4-3.2-1.7-5-.4-5.4,3.6-11,7-16.3,10.7-3.9,2.7-7.4,6-11.1,8.8a17.59,17.59,0,0,0-6.2,8.3c-1.6,4.6-3.3,9.1-4.7,13.8-1.1,3.5-1.8,7.2-2.6,10.8-.6,2.6,0,4.5,2.5,6,3.7,2.2,7.2,4.7,10.8,7.2,9,6.1,17.9,12.2,26.9,18.3,8,5.4,16.1,10.8,24.2,16.2s16.3,11.2,24.6,16.7c13.4,9.1,26.9,18.1,40.3,27.1,9.9,6.7,19.8,13.4,29.7,20.2a12.19,12.19,0,0,0,2.6,1.6,4.2,4.2,0,0,0,2.9.2c2.5-1.2,4.5-2.8,5.4-5.9C539.1,184.1,539.9,173.4,540.4,162.6ZM364.3,106.4a3.82,3.82,0,0,0-.4,1.3c-.2,3.5-.7,7-.6,10.5.1,9.6,0,19.2.7,28.7.7,9.8,2.1,19.5,3.4,29.2.6,4.4,1.4,8.7,2.2,13.1a5.85,5.85,0,0,0,2.8,4.2c8.4,5.6,16.8,11.2,25.3,16.8,9.5,6.3,19.1,12.6,28.7,18.9a8.46,8.46,0,0,0,6.7,1.5c5.2-1,10.3-1.9,15.5-2.8a354,354,0,0,0,35.1-7.6,226.82,226.82,0,0,0,28.1-9.6c1.2-.5,2.6-.8,3.3-2.4q-74.7-50.85-149.2-101.5A6.52,6.52,0,0,0,364.3,106.4ZM198.2,326.8h.3a7.52,7.52,0,0,1,0,1.5,5.66,5.66,0,0,0,2.7,5.8l1.2.9c11,8.3,22.1,16.6,33.1,25,10.3,7.9,20.6,15.8,31,23.7,14.9,11.4,29.9,22.6,44.9,34,12.8,9.7,25.6,19.5,38.4,29.2,1.8,1.4,2.4,1.3,3.6-.7.3-.5.6-1.1.9-1.6,3.7-7.1,5.8-14.8,8-22.4,2.5-8.8,3.6-17.8,4.6-26.8.4-3.1-.7-5.1-3.6-6.7-14-8.1-27.9-16.4-41.8-24.7-9.9-5.9-19.8-11.9-29.7-17.8-16.4-9.8-32.8-19.4-49.2-29.2-6.4-3.8-12.7-7.6-19.1-11.5-1.6-.9-3.1-1.7-4.9-.8-5.7,2.7-11.3,5.4-16.9,8.3a3.71,3.71,0,0,0-1.8,2.6C199.1,319.2,198.7,323,198.2,326.8ZM339,458.3c-3.3-3.4-137.3-105.3-139.5-106.1.2,1.5.2,3,.5,4.4,1.5,8.2,2.9,16.4,4.7,24.6,2.7,12.2,5.8,24.3,8.8,36.4a13.59,13.59,0,0,0,1.7,3.9c2.9,4.6,5.9,9.2,8.9,13.8l14.7,22.5c6.9,10.6,13.8,21.3,20.7,31.9,1.8,2.7,2,2.8,5.1,1.9,7.5-2.2,15.1-4.3,22.5-6.8a203.29,203.29,0,0,0,49.5-24.3A24,24,0,0,0,339,458.3ZM58.4,549.8c-4.4.5-8.3.9-12.2,1.4-1.1.1-1.8.7-1.6,1.9.6,2.8,1.1,5.7,3.4,7.8,2.1,1.8,4.2,3.7,6.3,5.5,5.4,4.6,10.8,9.3,16.2,13.9s10.6,9.2,15.8,13.8c4.4,3.9,8.9,7.7,13.3,11.6,3.9,3.4,7.7,6.8,11.6,10.2,5,4.3,10.1,8.5,15.1,12.8,7.2,6.3,14.4,12.7,21.6,19,7.5,6.6,15.1,13.1,22.6,19.6,3.3,2.9,6.7,5.8,10,8.7,1.7,1.4,2.5,1.4,3.8-.4a17.35,17.35,0,0,0,2.1-3.4c2.8-6,5.7-11.9,8.3-18a188.62,188.62,0,0,0,11.6-40.4c.5-2.9.4-3.2-2.2-4.2-4.3-1.8-8.6-3.6-12.8-5.4-7.9-3.2-15.9-6.4-23.8-9.7l-42-17.4c-8.1-3.3-16.3-6.6-24.4-9.9-13.3-5.5-26.5-11-39.7-16.4A10.54,10.54,0,0,0,58.4,549.8ZM504.1,0c-9.2,2.1-15.1,4.3-24.3,6.6a330.59,330.59,0,0,0-49.2,16.5c-1.2.5-2.2,1.3-3.9,2.2,36.4,31.9,72.4,63.3,108.9,95.1a11.31,11.31,0,0,0,.1-3.1c-.4-2.9-.9-5.7-1.4-8.5-2.6-12.7-5.2-25.5-7.9-38.2-2-9.6-4.2-19.1-6.2-28.7-2.5-12-4.9-24-7.4-36.1-.16-1.53-1.33-4-1.7-5.8M367.3,374.5c.1-1.2.2-2.1.2-3-.2-5-.3-10.1-.6-15.1-.6-7.6-1-15.2-2.1-22.8-1.8-12-4-24-6-36a4.39,4.39,0,0,0-3.1-3.8c-8.5-3-16.9-6.1-25.4-9a12.6,12.6,0,0,0-5.4-.7c-11.8,1.3-23.5,2.7-35.3,4.4-14.2,2-28.4,4-42.3,7.5-2.2.5-4.3,1.1-6.7,1.7C242.5,299.7,363.3,373,367.3,374.5ZM91.1,732.3a1.86,1.86,0,0,0,1,.1,21.72,21.72,0,0,0,2.4-.7,227.79,227.79,0,0,0,26.6-10.8,231.76,231.76,0,0,0,37.2-22c2.2-1.6,4.3-3.2,6.3-4.9,1.5-1.3,1.5-1.9.3-3.3-.6-.7-1.3-1.3-2-2-5.4-4.8-10.8-9.6-16.2-14.3l-23.3-20.3-19.1-16.7c-6.7-5.9-13.5-11.8-20.3-17.7-7-6.2-14.1-12.4-21.1-18.6a9.75,9.75,0,0,0-1.8-.9c.3,1.1.4,1.8.6,2.5,1.8,4.7,3.7,9.4,5.4,14.2,4.6,12.5,8.8,25.1,12.2,38a317.87,317.87,0,0,1,8.5,40.8c.8,6.4,1.5,12.9,2.1,19.3.4,5.2.5,10.5.7,15.7C90.8,731.4,91,731.8,91.1,732.3ZM110,548.5a6.12,6.12,0,0,0,1.5.7c14.3,5.8,28.7,11.6,43,17.4,10.4,4.2,20.8,8.4,31.3,12.6,6.9,2.8,13.8,5.5,20.7,8.2,2.4.9,3,.5,3.1-2v-.9c0-13.1.2-26.2-1.1-39.2-.5-5.6-1.1-4.5-5.4-4-5.7.7-11.4,1.6-17.2,2.2-5.2.6-10.5,1-15.7,1.4-6,.6-12.1,1.3-18.1,1.6-8.1.4-16.3.5-24.4.7-5.6.2-11.1.4-16.7.7C110.8,548,110.6,548.2,110,548.5ZM410.5,233.7c.1-.2.1-.4.2-.6-6.2-4.3-12.3-8.6-18.5-12.8s-12.1-8.6-18.9-12.7a18.55,18.55,0,0,0,0,2.4c1.7,8.4,3.5,16.7,5.3,25.1.5,2.3,1.1,2.6,3.5,2.3,4.7-.6,9.4-1.1,14.1-1.7S405.8,234.4,410.5,233.7ZM230.8,484.3c-.3.3-.6.5-.6.6.8,4,1.5,8,2.4,12a2.25,2.25,0,0,0,1.8,1.3,37.06,37.06,0,0,0,4.4-1C235.9,492.6,233.4,488.5,230.8,484.3Z"/></g></g></svg>