<?xml version="1.0" encoding="utf-8"?>
<!-- Generator: Adobe Illustrator 18.0.0, SVG Export Plug-In . SVG Version: 6.00 Build 0)  -->
<!DOCTYPE svg PUBLIC "-//W3C//DTD SVG 1.0//EN" "http://www.w3.org/TR/2001/REC-SVG-20010904/DTD/svg10.dtd">
<svg version="1.0" id="Layer_1" xmlns="http://www.w3.org/2000/svg" xmlns:xlink="http://www.w3.org/1999/xlink" x="0px" y="0px"
	 viewBox="0 0 240.8 102.9" enable-background="new 0 0 240.8 102.9" xml:space="preserve">
<g>
	<path fill="#171833" d="M207.1,37c4.8,0.5,13-13.3,15.9-17.2c3.1-4.1,5.5-2.5,4,1.6c-1.4,4.1-4.6,11.3-2,12.2
		c5.2,1.7,9.3-6.6,10.6-9.9c4.6-10.6,5.6,0.1,5.1,5.5c-1.1,11.9,1.9,41.3-44.5,42.3c-7.7,0.2-20.7-6.4-15.2-14.8
		c5.7-8.6,28.6-13.1,36.9-7.3c2.6,1.8,2.1,5.2-1.7,3.6c-2.7-1.2-7.2-2.6-14.7-0.6c-3.3,0.8-9,5.3-3.9,8.3c5,3,22.9-0.5,28.1-4.4
		c10.1-7.4,7.6-19,8.3-20.5c0,0,0.1-0.1,0.1-0.1c0,0-0.1,0.1-0.1,0.1c-1.8,2.7-4.5,6.1-11.4,5.8c-5-0.2-4.6-4.7-4.5-7.4
		c-3.9,4.7-7.2,6.9-11.7,7.2c-2.3,0.2-5-0.1-7.2-2c-12.3,7-20.3,2.1-17.1-10.7c2.3-9.4,5.9-17.9,7.6-21.5c4.4-9.2,11.6-5.4,9.1-0.8
		c-3.1,5.7-8.9,14.6-11,22.1c-3.2,11.5,6.2,10.3,9.5,8.5c-0.1-0.3-0.3-0.5-0.4-0.8c-4.3-9.3,4.9-24.2,16.2-17.4
		c3.4,4-2,11.7-8.5,16.9c-0.2,0.2-0.5,0.4-0.7,0.6C204.9,36.6,205.8,36.9,207.1,37z M201.6,34.1c4.3-3.6,7.7-8.3,5.5-9.7
		C203.7,22.2,199,29.6,201.6,34.1z"/>
	<path fill="#171833" d="M20.3,71.3c8,4.1,17.3-20.3,10.9-23.1C21.4,44,10.8,65.1,11.1,74.9c0.2,7.9,7,14.3,15.7,9.8
		c10.5-5.5,15.3-12.9,19.2-21.2c2.3-5,11.3-29.6,6.8-32.4c-3.8-2.4-9.5,3.5-6.8,15.8c1.1,5,4.2,12.4,6.1,20.6
		c1.2-4.6,4.5-11.3,8.4-13c12.5-5.2,1.6,19.4,6.9,16.8C70.8,69.6,70,46.9,80.7,44c9.7-2.7,11,16.9,2.6,23.6
		c-8,6.4-11.9-2.9-10.8-11.2c0.5-3.5,5.8-7.1,4.1-3.4c-2,4.4,0.3,10.5,3.9,8.6c6.2-3.1,6.3-17.6-0.3-13.3c-6.8,4.5-4.6,18.2-10,24.9
		c-1.9,2.1-5.2,3.2-6.3,2.4c-3.4-2.3,1.5-17.7-3-15.8c-3.6,1.5-4.6,11.3-5.7,16c-0.2,1-0.2,5.5-0.2,5.5L50.7,84
		c-1.1-10-4-19.9-7.8-33.1c-4-13.9,2.3-28.3,11.1-30.5c13.5-3.4,9.8,10.7,5.8,20.1c-6.7,15.9-14,41.1-25.3,54.2
		C19.1,112.2-2,99.5,0.2,78.7c1.4-13.1,12.5-38.8,30-35.6c14.5,2.7,9.3,19.3,3.1,27.4c-3.1,4.1-9.5,7.5-14.3,3.9
		C17.3,73.2,17.9,70.1,20.3,71.3z"/>
	<path fill="#171833" d="M104,43.8c-0.3-3-1.8-3.2-4.1-2.3c-3.1,1.3-5.2,5.8-4.5,9.9c0.5,2.4,2.9,4,7,2.5
		c7.4-2.8,8.7-16.3,14.3-21.2c11-9.6,18.4,9.7,9.8,19.6c-5.6,6.4-14.6,3.9-15.2-5.7c-0.5-6.9,3.6-15.2,11-16.6
		c7.6-1.5,8.6,5.5,15.3,5.5c7.1-0.1,9.8-15.2,8.4-21.6c-1.5-7-5.8-5.7-8.9,4.4c-1.9,6.2-1.5,25.8,6.3,26.1
		c6.4,0.3,10.5-23.1,22.9-23.5c8.2-0.3,10.4,16.4,4,21.5c-2.9,3.4-6.9,3.8-9.8,3.9c-7.8,0-9.5-11.4-4.3-18.7
		c2.7-3.9,6.2-2.9,3.1,0.5c-3.6,4.1-1.8,9.8,1.8,10c10,0.5,9.6-15.2,2.4-13.1c-2.6,0.8-5.7,3.9-9.3,11.2c-2.2,4.4-6.1,12.6-9.4,13.7
		c-3.4,1.1-6.4,0.3-9.2-5.8c-3.9-8.8-3.5-19.6-1.9-28.2c4.2-23.6,23.4-17.4,20.9-2c-1.2,7.3-5.9,19.7-12.5,23.8
		c-7.4,4.4-9.5-2.5-16-3.9c-9.7-2.3-15.9,14.5-5.2,13c7.5-1.8,8.5-16.4-0.1-12.1c-8,4-8.2,16.3-13.6,23.2
		c-7.5,9.4-17.6,3.5-16.5-9.2c0.3-4,4.3-10.1,8.9-11.5c4.8-1.4,7.9,1.5,7.2,6.6C106.5,45.6,104.2,46.1,104,43.8z"/>
	<path fill="#171833" d="M177.9,24.6c-3.5,4.4-3.5,11.3,0.4,14.1c1.6,1.2,5.6,0.6,8.4-1.4l1.5,2.3c-9.2,8.9-18.2,1.7-16.7-10.1
		c0.2-1.3,1.6-4.8,3-6.9C176.7,19.5,180.1,21.8,177.9,24.6z"/>
	<path fill="#171833" d="M180.5,14c-4.8-1.8-5.1,1.6-2.3,2.8c12.6,5.7,21.5,1.3,24-1.4c2.3-2.5,0.1-3.9-2.1-2.9
		C193.2,15.5,186.8,16.4,180.5,14z"/>
</g>
</svg>
