<?xml version="1.0" encoding="utf-8"?>
<!-- Generator: Adobe Illustrator 18.0.0, SVG Export Plug-In . SVG Version: 6.00 Build 0)  -->
<!DOCTYPE svg PUBLIC "-//W3C//DTD SVG 1.0//EN" "http://www.w3.org/TR/2001/REC-SVG-20010904/DTD/svg10.dtd">
<svg version="1.0" id="Layer_1" xmlns="http://www.w3.org/2000/svg" xmlns:xlink="http://www.w3.org/1999/xlink" x="0px" y="0px"
	 viewBox="0 0 117.2 85.5" enable-background="new 0 0 117.2 85.5" xml:space="preserve">
<rect x="31.6" y="-2.5" transform="matrix(8.791760e-02 0.9961 -0.9961 8.791760e-02 106.9084 -11.7729)" fill="#733310" width="56.5" height="110.1"/>
<polygon fill="#893E1B" points="7.5,85.5 13,78.7 111.7,70.1 117.2,75.8 "/>
<polygon fill="#893E1B" points="111.7,70.1 108.9,38.3 113.9,37.9 117.2,75.8 "/>
<polygon fill="#672D13" points="79.9,79.1 76.7,43.2 79.1,43 81.7,72.6 "/>
<polygon fill="#893E1B" points="76.9,73 74.3,43.4 76.7,43.2 79.9,79.1 "/>
<polygon fill="#672D13" points="44.9,82.2 41.7,46.3 44.1,46.1 46.7,75.7 "/>
<polygon fill="#893E1B" points="41.9,76.1 39.3,46.5 41.7,46.3 44.9,82.2 "/>
<polygon fill="#672D13" points="7.5,85.5 4.1,46.5 10.1,46 13,78.7 "/>
<polygon fill="#DB4C14" points="11.8,65.9 6,0 105.5,0 110.5,57.1 100.3,56.1 90.7,63.6 86.3,59.3 71.1,63.4 62.4,58.8 57,63.3 
	42.9,59.6 35.1,62.5 22.7,67.4 "/>
<path fill="#FDC300" d="M136.2,35.7C136.2,35.6,136.2,35.6,136.2,35.7C136.2,35.6,136.2,35.6,136.2,35.7z"/>
<g>
	<path fill="#FFFFFF" d="M88.5,23.5c1.8,0,4.3-5.2,5.2-6.7c1-1.6,1.9-1.1,1.5,0.5c-0.4,1.5-1.3,4.3-0.4,4.5c1.9,0.5,3.2-2.7,3.6-3.9
		c1.4-4,2-0.1,2,1.8c-0.1,4.4,1.9,15-14.9,16.7c-2.8,0.3-7.7-1.7-6-4.9c1.8-3.3,10-5.6,13.2-3.8c1,0.6,0.9,1.8-0.5,1.4
		c-1-0.3-2.7-0.7-5.4,0.2c-1.2,0.4-3.1,2.2-1.2,3.1c1.9,0.9,8.3-0.9,10.1-2.4c3.4-3,2.2-7.1,2.4-7.7c0,0,0,0,0-0.1c0,0,0,0,0,0.1
		c-0.6,1-1.4,2.3-4,2.5c-1.8,0.1-1.8-1.6-1.9-2.6c-1.3,1.8-2.4,2.7-4,3c-0.8,0.1-1.8,0.1-2.7-0.5c-4.3,2.9-7.3,1.4-6.6-3.4
		c0.6-3.5,1.6-6.7,2.1-8.1c1.3-3.5,4.1-2.3,3.3-0.6c-0.9,2.2-2.8,5.6-3.3,8.4c-0.8,4.3,2.6,3.6,3.7,2.8c-0.1-0.1-0.1-0.2-0.2-0.3
		c-1.8-3.3,1-9,5.4-6.8c1.4,1.4-0.4,4.3-2.6,6.4c-0.1,0.1-0.2,0.2-0.3,0.2C87.7,23.4,88,23.5,88.5,23.5z M86.4,22.6
		c1.5-1.4,2.5-3.3,1.7-3.7C86.8,18.2,85.3,21,86.4,22.6z"/>
	<path fill="#FFFFFF" d="M21.6,41.6c3,1.2,5.7-7.9,3.2-8.7c-3.7-1.2-6.9,6.8-6.5,10.3c0.3,2.9,3,5,6,3.1c3.7-2.3,5.2-5.2,6.3-8.3
		c0.7-1.9,3.2-11.1,1.5-12c-1.4-0.8-3.4,1.6-2,6c0.5,1.8,1.9,4.4,2.8,7.3c0.3-1.7,1.3-4.3,2.6-5c4.4-2.3,1.2,7,3,5.9
		c1.2-0.7,0.2-8.9,4-10.3c3.4-1.3,4.5,5.8,1.7,8.5c-2.7,2.6-4.4-0.7-4.3-3.7c0.1-1.3,1.9-2.7,1.4-1.4c-0.6,1.7,0.4,3.8,1.7,3
		c2.2-1.3,1.7-6.6-0.5-4.8c-2.3,1.8-1.1,6.8-2.9,9.4c-0.6,0.8-1.8,1.3-2.2,1.1c-1.3-0.7,0-6.5-1.6-5.6c-1.3,0.6-1.3,4.2-1.6,6
		c-0.1,0.4,0.1,2,0.1,2l-1.6,1.1c-0.7-3.6-2.1-7.1-3.9-11.8c-1.9-4.9,0-10.4,3.1-11.4c4.8-1.6,3.9,3.6,2.7,7.1
		c-2,6-3.8,15.3-7.5,20.5c-5,6.9-13.1,2.9-13-4.8c0.1-4.8,3.4-14.5,9.8-13.8c5.4,0.5,4,6.7,2,9.9c-1,1.6-3.2,3-5.1,1.9
		C20.6,42.4,20.7,41.3,21.6,41.6z"/>
	<path fill="#FFFFFF" d="M51.2,29.1C51,28,50.5,28,49.7,28.4c-1.1,0.6-1.7,2.3-1.3,3.8c0.2,0.9,1.2,1.4,2.6,0.7
		c2.6-1.2,2.6-6.2,4.6-8.2c3.7-3.8,7,3,4.2,6.8c-1.8,2.5-5.2,1.9-5.7-1.6c-0.4-2.5,0.9-5.6,3.5-6.4c2.7-0.8,3.3,1.8,5.7,1.5
		c2.6-0.2,3.1-5.8,2.4-8.1c-0.8-2.5-2.3-1.9-3.1,1.9c-0.5,2.3,0.3,9.4,3.1,9.3c2.3-0.1,3.1-8.7,7.6-9.2c3-0.3,4.3,5.6,2.1,7.7
		c-1,1.3-2.4,1.6-3.4,1.7c-2.8,0.2-3.8-3.9-2.1-6.7c0.9-1.5,2.1-1.3,1.2,0.1c-1.2,1.6-0.3,3.6,1,3.6c3.6-0.1,3-5.8,0.5-4.8
		c-0.9,0.4-2,1.6-3,4.4c-0.6,1.7-1.8,4.8-3,5.3c-1.2,0.5-2.3,0.3-3.5-1.8c-1.7-3.1-1.9-7-1.6-10.2c0.8-8.7,8-7,7.5-1.4
		c-0.2,2.7-1.5,7.3-3.8,9c-2.6,1.8-3.5-0.6-5.9-0.9c-3.6-0.5-5.3,5.7-1.5,4.9c2.7-0.9,2.6-6.2-0.4-4.4c-2.8,1.7-2.5,6.2-4.2,8.8
		c-2.4,3.6-6.3,1.8-6.3-2.9c0-1.5,1.3-3.8,2.9-4.4c1.7-0.7,2.9,0.3,2.8,2.2C52.2,29.7,51.4,29.9,51.2,29.1z"/>
	<path fill="#FFFFFF" d="M77.5,19.9c-1.2,1.7-0.9,4.2,0.6,5.1c0.6,0.4,2.1,0.1,3-0.8l0.6,0.8c-3.1,3.5-6.6,1.2-6.4-3.2
		c0-0.5,0.4-1.8,0.9-2.6C76.9,18,78.2,18.8,77.5,19.9z"/>
	<path fill="#FFFFFF" d="M78.1,15.9c-1.8-0.5-1.8,0.7-0.7,1.1c4.8,1.7,7.8-0.2,8.7-1.2c0.8-1-0.1-1.4-0.8-1
		C82.8,16.1,80.5,16.6,78.1,15.9z"/>
</g>
<polygon fill="#EC650F" points="110.7,0 105.5,0 110.5,57.1 115.2,53.2 "/>
<polygon fill="#C43C18" points="11.8,65.9 6,0 0,0 5.4,61.6 "/>
</svg>
